%TF.GenerationSoftware,KiCad,Pcbnew,(5.1.8-0-10_14)*%
%TF.CreationDate,2021-01-01T23:10:54+08:00*%
%TF.ProjectId,nodemcu shield,6e6f6465-6d63-4752-9073-6869656c642e,rev?*%
%TF.SameCoordinates,Original*%
%TF.FileFunction,Copper,L2,Bot*%
%TF.FilePolarity,Positive*%
%FSLAX46Y46*%
G04 Gerber Fmt 4.6, Leading zero omitted, Abs format (unit mm)*
G04 Created by KiCad (PCBNEW (5.1.8-0-10_14)) date 2021-01-01 23:10:54*
%MOMM*%
%LPD*%
G01*
G04 APERTURE LIST*
%TA.AperFunction,ComponentPad*%
%ADD10C,1.524000*%
%TD*%
%TA.AperFunction,ComponentPad*%
%ADD11O,3.000000X1.500000*%
%TD*%
%TA.AperFunction,ComponentPad*%
%ADD12R,3.000000X1.500000*%
%TD*%
%TA.AperFunction,ViaPad*%
%ADD13C,3.000000*%
%TD*%
%TA.AperFunction,Conductor*%
%ADD14C,0.250000*%
%TD*%
%TA.AperFunction,Conductor*%
%ADD15C,0.254000*%
%TD*%
%TA.AperFunction,Conductor*%
%ADD16C,0.100000*%
%TD*%
G04 APERTURE END LIST*
D10*
%TO.P,U1,30*%
%TO.N,Net-(J2-Pad1)*%
X135610000Y-109900000D03*
%TO.P,U1,29*%
%TO.N,Net-(J2-Pad2)*%
X135610000Y-112440000D03*
%TO.P,U1,28*%
%TO.N,Net-(J2-Pad3)*%
X135610000Y-114980000D03*
%TO.P,U1,27*%
%TO.N,Net-(J2-Pad4)*%
X135610000Y-117520000D03*
%TO.P,U1,26*%
%TO.N,Net-(J2-Pad5)*%
X135610000Y-120060000D03*
%TO.P,U1,25*%
%TO.N,+3V3*%
X135610000Y-122600000D03*
%TO.P,U1,24*%
%TO.N,Net-(J2-Pad7)*%
X135610000Y-125140000D03*
%TO.P,U1,23*%
%TO.N,Net-(J2-Pad8)*%
X135610000Y-127680000D03*
%TO.P,U1,22*%
%TO.N,Net-(J2-Pad9)*%
X135610000Y-130220000D03*
%TO.P,U1,21*%
%TO.N,Net-(J2-Pad10)*%
X135610000Y-132760000D03*
%TO.P,U1,20*%
%TO.N,Net-(J2-Pad11)*%
X135610000Y-135300000D03*
%TO.P,U1,19*%
%TO.N,Net-(J2-Pad12)*%
X135610000Y-137840000D03*
%TO.P,U1,18*%
%TO.N,Net-(J2-Pad13)*%
X135610000Y-140380000D03*
%TO.P,U1,17*%
%TO.N,GND*%
X135610000Y-142920000D03*
%TO.P,U1,16*%
%TO.N,+3V3*%
X135610000Y-145460000D03*
%TO.P,U1,15*%
%TO.N,Net-(J1-Pad1)*%
X107670000Y-145460000D03*
%TO.P,U1,14*%
%TO.N,GND*%
X107670000Y-142920000D03*
%TO.P,U1,13*%
%TO.N,Net-(J1-Pad4)*%
X107670000Y-140380000D03*
%TO.P,U1,12*%
%TO.N,Net-(J1-Pad5)*%
X107670000Y-137840000D03*
%TO.P,U1,11*%
%TO.N,+3V3*%
X107670000Y-135300000D03*
%TO.P,U1,10*%
%TO.N,GND*%
X107670000Y-132760000D03*
%TO.P,U1,9*%
%TO.N,Net-(J1-Pad8)*%
X107670000Y-130220000D03*
%TO.P,U1,8*%
%TO.N,Net-(J1-Pad9)*%
X107670000Y-127680000D03*
%TO.P,U1,7*%
%TO.N,Net-(J1-Pad10)*%
X107670000Y-125140000D03*
%TO.P,U1,6*%
%TO.N,Net-(J1-Pad11)*%
X107670000Y-122600000D03*
%TO.P,U1,5*%
%TO.N,Net-(J1-Pad12)*%
X107670000Y-120060000D03*
%TO.P,U1,4*%
%TO.N,Net-(J1-Pad13)*%
X107670000Y-117520000D03*
%TO.P,U1,3*%
%TO.N,Net-(J1-Pad14)*%
X107670000Y-114980000D03*
%TO.P,U1,2*%
%TO.N,Net-(J1-Pad15)*%
X107670000Y-112440000D03*
%TO.P,U1,1*%
%TO.N,Net-(J1-Pad16)*%
X107670000Y-109900000D03*
%TD*%
D11*
%TO.P,J2,16*%
%TO.N,GND*%
X152000000Y-165000000D03*
%TO.P,J2,15*%
%TO.N,+3V3*%
X152000000Y-160000000D03*
%TO.P,J2,14*%
%TO.N,GND*%
X152000000Y-155000000D03*
%TO.P,J2,13*%
%TO.N,Net-(J2-Pad13)*%
X152000000Y-150000000D03*
%TO.P,J2,12*%
%TO.N,Net-(J2-Pad12)*%
X152000000Y-145000000D03*
%TO.P,J2,11*%
%TO.N,Net-(J2-Pad11)*%
X152000000Y-140000000D03*
%TO.P,J2,10*%
%TO.N,Net-(J2-Pad10)*%
X152000000Y-135000000D03*
%TO.P,J2,9*%
%TO.N,Net-(J2-Pad9)*%
X152000000Y-130000000D03*
%TO.P,J2,8*%
%TO.N,Net-(J2-Pad8)*%
X152000000Y-125000000D03*
%TO.P,J2,7*%
%TO.N,Net-(J2-Pad7)*%
X152000000Y-120000000D03*
%TO.P,J2,6*%
%TO.N,+3V3*%
X152000000Y-115000000D03*
%TO.P,J2,5*%
%TO.N,Net-(J2-Pad5)*%
X152000000Y-110000000D03*
%TO.P,J2,4*%
%TO.N,Net-(J2-Pad4)*%
X152000000Y-105000000D03*
%TO.P,J2,3*%
%TO.N,Net-(J2-Pad3)*%
X152000000Y-100000000D03*
%TO.P,J2,2*%
%TO.N,Net-(J2-Pad2)*%
X152000000Y-95000000D03*
D12*
%TO.P,J2,1*%
%TO.N,Net-(J2-Pad1)*%
X152000000Y-90000000D03*
%TD*%
D11*
%TO.P,J1,16*%
%TO.N,Net-(J1-Pad16)*%
X92190000Y-90240000D03*
%TO.P,J1,15*%
%TO.N,Net-(J1-Pad15)*%
X92190000Y-95240000D03*
%TO.P,J1,14*%
%TO.N,Net-(J1-Pad14)*%
X92190000Y-100240000D03*
%TO.P,J1,13*%
%TO.N,Net-(J1-Pad13)*%
X92190000Y-105240000D03*
%TO.P,J1,12*%
%TO.N,Net-(J1-Pad12)*%
X92190000Y-110240000D03*
%TO.P,J1,11*%
%TO.N,Net-(J1-Pad11)*%
X92190000Y-115240000D03*
%TO.P,J1,10*%
%TO.N,Net-(J1-Pad10)*%
X92190000Y-120240000D03*
%TO.P,J1,9*%
%TO.N,Net-(J1-Pad9)*%
X92190000Y-125240000D03*
%TO.P,J1,8*%
%TO.N,Net-(J1-Pad8)*%
X92190000Y-130240000D03*
%TO.P,J1,7*%
%TO.N,GND*%
X92190000Y-135240000D03*
%TO.P,J1,6*%
%TO.N,+3V3*%
X92190000Y-140240000D03*
%TO.P,J1,5*%
%TO.N,Net-(J1-Pad5)*%
X92190000Y-145240000D03*
%TO.P,J1,4*%
%TO.N,Net-(J1-Pad4)*%
X92190000Y-150240000D03*
%TO.P,J1,3*%
%TO.N,GND*%
X92190000Y-155240000D03*
%TO.P,J1,2*%
%TO.N,Net-(J1-Pad1)*%
X92190000Y-160240000D03*
D12*
%TO.P,J1,1*%
X92190000Y-165240000D03*
%TD*%
D13*
%TO.N,GND*%
X85100000Y-85100000D03*
X159000000Y-85000000D03*
X159000000Y-170100000D03*
X85100000Y-169800000D03*
%TD*%
D14*
%TO.N,Net-(J1-Pad16)*%
X107670000Y-109900000D02*
X107670000Y-95630000D01*
X102280000Y-90240000D02*
X92190000Y-90240000D01*
X107670000Y-95630000D02*
X102280000Y-90240000D01*
%TO.N,Net-(J1-Pad15)*%
X107670000Y-112440000D02*
X106090000Y-112440000D01*
X106090000Y-112440000D02*
X102200000Y-108550000D01*
X102200000Y-108550000D02*
X102200000Y-97550000D01*
X99890000Y-95240000D02*
X92190000Y-95240000D01*
X102200000Y-97550000D02*
X99890000Y-95240000D01*
%TO.N,Net-(J1-Pad14)*%
X107670000Y-114980000D02*
X105840000Y-114980000D01*
X105840000Y-114980000D02*
X98500000Y-107640000D01*
X98500000Y-107640000D02*
X98500000Y-101670000D01*
X97070000Y-100240000D02*
X92190000Y-100240000D01*
X98500000Y-101670000D02*
X97070000Y-100240000D01*
%TO.N,Net-(J1-Pad13)*%
X92190000Y-105240000D02*
X96100000Y-105240000D01*
X96100000Y-105240000D02*
X96750000Y-105890000D01*
X96750000Y-105890000D02*
X96750000Y-108450000D01*
X105820000Y-117520000D02*
X107670000Y-117520000D01*
X96750000Y-108450000D02*
X105820000Y-117520000D01*
%TO.N,Net-(J1-Pad12)*%
X107670000Y-120060000D02*
X105370000Y-120060000D01*
X95550000Y-110240000D02*
X92190000Y-110240000D01*
X105370000Y-120060000D02*
X95550000Y-110240000D01*
%TO.N,Net-(J1-Pad11)*%
X107670000Y-122600000D02*
X103180000Y-122600000D01*
X95820000Y-115240000D02*
X92190000Y-115240000D01*
X103180000Y-122600000D02*
X95820000Y-115240000D01*
%TO.N,Net-(J1-Pad10)*%
X107670000Y-125140000D02*
X102520000Y-125140000D01*
X97620000Y-120240000D02*
X92190000Y-120240000D01*
X102520000Y-125140000D02*
X97620000Y-120240000D01*
%TO.N,Net-(J1-Pad9)*%
X107670000Y-127680000D02*
X101770000Y-127680000D01*
X99330000Y-125240000D02*
X92190000Y-125240000D01*
X101770000Y-127680000D02*
X99330000Y-125240000D01*
%TO.N,Net-(J1-Pad8)*%
X92210000Y-130220000D02*
X92190000Y-130240000D01*
X107670000Y-130220000D02*
X92210000Y-130220000D01*
%TO.N,+3V3*%
X97130000Y-135300000D02*
X92190000Y-140240000D01*
X107670000Y-135300000D02*
X97130000Y-135300000D01*
X152000000Y-160000000D02*
X152000000Y-158810000D01*
X138650000Y-145460000D02*
X135610000Y-145460000D01*
X152000000Y-158810000D02*
X138650000Y-145460000D01*
X152000000Y-115000000D02*
X145030000Y-115000000D01*
X137430000Y-122600000D02*
X135610000Y-122600000D01*
X145030000Y-115000000D02*
X137430000Y-122600000D01*
X150804717Y-166075010D02*
X135610000Y-150880293D01*
X155000009Y-164270284D02*
X153195283Y-166075010D01*
X153195283Y-166075010D02*
X150804717Y-166075010D01*
X155000009Y-145729716D02*
X155000009Y-164270284D01*
X153195283Y-143924990D02*
X155000009Y-145729716D01*
X146111400Y-143924990D02*
X153195283Y-143924990D01*
X135610000Y-150880293D02*
X135610000Y-145460000D01*
X138939409Y-136752999D02*
X146111400Y-143924990D01*
X107670000Y-135300000D02*
X109122999Y-136752999D01*
X135610000Y-122600000D02*
X126100000Y-122600000D01*
X126100000Y-122600000D02*
X122047001Y-126652999D01*
X122047001Y-126652999D02*
X122047001Y-136752999D01*
X122047001Y-136752999D02*
X138939409Y-136752999D01*
X109122999Y-136752999D02*
X122047001Y-136752999D01*
%TO.N,Net-(J1-Pad5)*%
X107670000Y-137840000D02*
X102090000Y-137840000D01*
X94690000Y-145240000D02*
X92190000Y-145240000D01*
X102090000Y-137840000D02*
X94690000Y-145240000D01*
%TO.N,Net-(J1-Pad4)*%
X107670000Y-140380000D02*
X104370000Y-140380000D01*
X94510000Y-150240000D02*
X92190000Y-150240000D01*
X104370000Y-140380000D02*
X94510000Y-150240000D01*
%TO.N,GND*%
X94670000Y-132760000D02*
X92190000Y-135240000D01*
X107670000Y-132760000D02*
X94670000Y-132760000D01*
X107670000Y-142920000D02*
X105660000Y-142920000D01*
X93340000Y-155240000D02*
X92190000Y-155240000D01*
X105660000Y-142920000D02*
X93340000Y-155240000D01*
X92190000Y-155240000D02*
X89220000Y-152270000D01*
X89220000Y-138210000D02*
X92190000Y-135240000D01*
X89220000Y-152270000D02*
X89220000Y-138210000D01*
X152000000Y-165000000D02*
X153460000Y-165000000D01*
X153460000Y-165000000D02*
X154550000Y-163910000D01*
X154550000Y-157550000D02*
X152000000Y-155000000D01*
X154550000Y-163910000D02*
X154550000Y-157550000D01*
X152000000Y-155000000D02*
X151040000Y-155000000D01*
X138960000Y-142920000D02*
X135610000Y-142920000D01*
X151040000Y-155000000D02*
X138960000Y-142920000D01*
X135610000Y-142920000D02*
X107670000Y-142920000D01*
%TO.N,Net-(J2-Pad13)*%
X152000000Y-150000000D02*
X148700000Y-150000000D01*
X139080000Y-140380000D02*
X135610000Y-140380000D01*
X148700000Y-150000000D02*
X139080000Y-140380000D01*
%TO.N,Net-(J2-Pad12)*%
X152000000Y-145000000D02*
X146550000Y-145000000D01*
X139390000Y-137840000D02*
X135610000Y-137840000D01*
X146550000Y-145000000D02*
X139390000Y-137840000D01*
%TO.N,Net-(J2-Pad11)*%
X152000000Y-140000000D02*
X144590000Y-140000000D01*
X139890000Y-135300000D02*
X135610000Y-135300000D01*
X144590000Y-140000000D02*
X139890000Y-135300000D01*
%TO.N,Net-(J2-Pad10)*%
X152000000Y-135000000D02*
X143530000Y-135000000D01*
X141290000Y-132760000D02*
X135610000Y-132760000D01*
X143530000Y-135000000D02*
X141290000Y-132760000D01*
%TO.N,Net-(J2-Pad9)*%
X135830000Y-130000000D02*
X135610000Y-130220000D01*
X152000000Y-130000000D02*
X135830000Y-130000000D01*
%TO.N,Net-(J2-Pad8)*%
X152000000Y-125000000D02*
X142500000Y-125000000D01*
X139820000Y-127680000D02*
X135610000Y-127680000D01*
X142500000Y-125000000D02*
X139820000Y-127680000D01*
%TO.N,Net-(J2-Pad7)*%
X152000000Y-120000000D02*
X143170000Y-120000000D01*
X138030000Y-125140000D02*
X135610000Y-125140000D01*
X143170000Y-120000000D02*
X138030000Y-125140000D01*
%TO.N,Net-(J2-Pad5)*%
X145670000Y-110000000D02*
X135610000Y-120060000D01*
X152000000Y-110000000D02*
X145670000Y-110000000D01*
%TO.N,Net-(J2-Pad4)*%
X148130000Y-105000000D02*
X135610000Y-117520000D01*
X152000000Y-105000000D02*
X148130000Y-105000000D01*
%TO.N,Net-(J2-Pad3)*%
X135610000Y-114980000D02*
X150300000Y-100290000D01*
X151710000Y-100290000D02*
X152000000Y-100000000D01*
X150300000Y-100290000D02*
X151710000Y-100290000D01*
%TO.N,Net-(J2-Pad2)*%
X152000000Y-96050000D02*
X152000000Y-95000000D01*
X152000000Y-95000000D02*
X146250000Y-95000000D01*
X146250000Y-95000000D02*
X139070000Y-102180000D01*
X139070000Y-108980000D02*
X135610000Y-112440000D01*
X139070000Y-102180000D02*
X139070000Y-108980000D01*
%TO.N,Net-(J2-Pad1)*%
X135610000Y-109900000D02*
X135610000Y-102130000D01*
X147740000Y-90000000D02*
X152000000Y-90000000D01*
X135610000Y-102130000D02*
X147740000Y-90000000D01*
%TO.N,Net-(J1-Pad1)*%
X107670000Y-145460000D02*
X107670000Y-147310000D01*
X94740000Y-160240000D02*
X92190000Y-160240000D01*
X107670000Y-147310000D02*
X94740000Y-160240000D01*
X92190000Y-165240000D02*
X92190000Y-160240000D01*
%TD*%
D15*
%TO.N,GND*%
X160340001Y-171340000D02*
X83660000Y-171340000D01*
X83660000Y-160240000D01*
X90048299Y-160240000D01*
X90075040Y-160511507D01*
X90154236Y-160772581D01*
X90282843Y-161013188D01*
X90455919Y-161224081D01*
X90666812Y-161397157D01*
X90907419Y-161525764D01*
X91168493Y-161604960D01*
X91371963Y-161625000D01*
X91430001Y-161625000D01*
X91430000Y-163851928D01*
X90690000Y-163851928D01*
X90565518Y-163864188D01*
X90445820Y-163900498D01*
X90335506Y-163959463D01*
X90238815Y-164038815D01*
X90159463Y-164135506D01*
X90100498Y-164245820D01*
X90064188Y-164365518D01*
X90051928Y-164490000D01*
X90051928Y-165990000D01*
X90064188Y-166114482D01*
X90100498Y-166234180D01*
X90159463Y-166344494D01*
X90238815Y-166441185D01*
X90335506Y-166520537D01*
X90445820Y-166579502D01*
X90565518Y-166615812D01*
X90690000Y-166628072D01*
X93690000Y-166628072D01*
X93814482Y-166615812D01*
X93934180Y-166579502D01*
X94044494Y-166520537D01*
X94141185Y-166441185D01*
X94220537Y-166344494D01*
X94279502Y-166234180D01*
X94315812Y-166114482D01*
X94328072Y-165990000D01*
X94328072Y-164490000D01*
X94315812Y-164365518D01*
X94279502Y-164245820D01*
X94220537Y-164135506D01*
X94141185Y-164038815D01*
X94044494Y-163959463D01*
X93934180Y-163900498D01*
X93814482Y-163864188D01*
X93690000Y-163851928D01*
X92950000Y-163851928D01*
X92950000Y-161625000D01*
X93008037Y-161625000D01*
X93211507Y-161604960D01*
X93472581Y-161525764D01*
X93713188Y-161397157D01*
X93924081Y-161224081D01*
X94097157Y-161013188D01*
X94104206Y-161000000D01*
X94702678Y-161000000D01*
X94740000Y-161003676D01*
X94777322Y-161000000D01*
X94777333Y-161000000D01*
X94888986Y-160989003D01*
X95032247Y-160945546D01*
X95164276Y-160874974D01*
X95280001Y-160780001D01*
X95303804Y-160750997D01*
X108181003Y-147873799D01*
X108210001Y-147850001D01*
X108304974Y-147734276D01*
X108375546Y-147602247D01*
X108419003Y-147458986D01*
X108430000Y-147347333D01*
X108430000Y-147347324D01*
X108433676Y-147310001D01*
X108430000Y-147272678D01*
X108430000Y-146632341D01*
X108560535Y-146545120D01*
X108755120Y-146350535D01*
X108908005Y-146121727D01*
X109013314Y-145867490D01*
X109067000Y-145597592D01*
X109067000Y-145322408D01*
X109013314Y-145052510D01*
X108908005Y-144798273D01*
X108755120Y-144569465D01*
X108560535Y-144374880D01*
X108331727Y-144221995D01*
X108260057Y-144192308D01*
X108273023Y-144187636D01*
X108388980Y-144125656D01*
X108455960Y-143885565D01*
X107670000Y-143099605D01*
X106884040Y-143885565D01*
X106951020Y-144125656D01*
X107086760Y-144189485D01*
X107008273Y-144221995D01*
X106779465Y-144374880D01*
X106584880Y-144569465D01*
X106431995Y-144798273D01*
X106326686Y-145052510D01*
X106273000Y-145322408D01*
X106273000Y-145597592D01*
X106326686Y-145867490D01*
X106431995Y-146121727D01*
X106584880Y-146350535D01*
X106779465Y-146545120D01*
X106910001Y-146632341D01*
X106910001Y-146995197D01*
X94425199Y-159480000D01*
X94104206Y-159480000D01*
X94097157Y-159466812D01*
X93924081Y-159255919D01*
X93713188Y-159082843D01*
X93472581Y-158954236D01*
X93211507Y-158875040D01*
X93008037Y-158855000D01*
X91371963Y-158855000D01*
X91168493Y-158875040D01*
X90907419Y-158954236D01*
X90666812Y-159082843D01*
X90455919Y-159255919D01*
X90282843Y-159466812D01*
X90154236Y-159707419D01*
X90075040Y-159968493D01*
X90048299Y-160240000D01*
X83660000Y-160240000D01*
X83660000Y-155581185D01*
X90097682Y-155581185D01*
X90111827Y-155652684D01*
X90217858Y-155903868D01*
X90370855Y-156129540D01*
X90564939Y-156321028D01*
X90792651Y-156470972D01*
X91045240Y-156573611D01*
X91313000Y-156625000D01*
X92063000Y-156625000D01*
X92063000Y-155367000D01*
X92317000Y-155367000D01*
X92317000Y-156625000D01*
X93067000Y-156625000D01*
X93334760Y-156573611D01*
X93587349Y-156470972D01*
X93815061Y-156321028D01*
X94009145Y-156129540D01*
X94162142Y-155903868D01*
X94268173Y-155652684D01*
X94282318Y-155581185D01*
X94159656Y-155367000D01*
X92317000Y-155367000D01*
X92063000Y-155367000D01*
X90220344Y-155367000D01*
X90097682Y-155581185D01*
X83660000Y-155581185D01*
X83660000Y-154898815D01*
X90097682Y-154898815D01*
X90220344Y-155113000D01*
X92063000Y-155113000D01*
X92063000Y-153855000D01*
X92317000Y-153855000D01*
X92317000Y-155113000D01*
X94159656Y-155113000D01*
X94282318Y-154898815D01*
X94268173Y-154827316D01*
X94162142Y-154576132D01*
X94009145Y-154350460D01*
X93815061Y-154158972D01*
X93587349Y-154009028D01*
X93334760Y-153906389D01*
X93067000Y-153855000D01*
X92317000Y-153855000D01*
X92063000Y-153855000D01*
X91313000Y-153855000D01*
X91045240Y-153906389D01*
X90792651Y-154009028D01*
X90564939Y-154158972D01*
X90370855Y-154350460D01*
X90217858Y-154576132D01*
X90111827Y-154827316D01*
X90097682Y-154898815D01*
X83660000Y-154898815D01*
X83660000Y-140240000D01*
X90048299Y-140240000D01*
X90075040Y-140511507D01*
X90154236Y-140772581D01*
X90282843Y-141013188D01*
X90455919Y-141224081D01*
X90666812Y-141397157D01*
X90907419Y-141525764D01*
X91168493Y-141604960D01*
X91371963Y-141625000D01*
X93008037Y-141625000D01*
X93211507Y-141604960D01*
X93472581Y-141525764D01*
X93713188Y-141397157D01*
X93924081Y-141224081D01*
X94097157Y-141013188D01*
X94225764Y-140772581D01*
X94304960Y-140511507D01*
X94331701Y-140240000D01*
X94304960Y-139968493D01*
X94225764Y-139707419D01*
X94097157Y-139466812D01*
X94070487Y-139434314D01*
X97444802Y-136060000D01*
X106497659Y-136060000D01*
X106584880Y-136190535D01*
X106779465Y-136385120D01*
X107008273Y-136538005D01*
X107085515Y-136570000D01*
X107008273Y-136601995D01*
X106779465Y-136754880D01*
X106584880Y-136949465D01*
X106497659Y-137080000D01*
X102127322Y-137080000D01*
X102089999Y-137076324D01*
X102052676Y-137080000D01*
X102052667Y-137080000D01*
X101941014Y-137090997D01*
X101797753Y-137134454D01*
X101665724Y-137205026D01*
X101549999Y-137299999D01*
X101526201Y-137328997D01*
X94375199Y-144480000D01*
X94104206Y-144480000D01*
X94097157Y-144466812D01*
X93924081Y-144255919D01*
X93713188Y-144082843D01*
X93472581Y-143954236D01*
X93211507Y-143875040D01*
X93008037Y-143855000D01*
X91371963Y-143855000D01*
X91168493Y-143875040D01*
X90907419Y-143954236D01*
X90666812Y-144082843D01*
X90455919Y-144255919D01*
X90282843Y-144466812D01*
X90154236Y-144707419D01*
X90075040Y-144968493D01*
X90048299Y-145240000D01*
X90075040Y-145511507D01*
X90154236Y-145772581D01*
X90282843Y-146013188D01*
X90455919Y-146224081D01*
X90666812Y-146397157D01*
X90907419Y-146525764D01*
X91168493Y-146604960D01*
X91371963Y-146625000D01*
X93008037Y-146625000D01*
X93211507Y-146604960D01*
X93472581Y-146525764D01*
X93713188Y-146397157D01*
X93924081Y-146224081D01*
X94097157Y-146013188D01*
X94104206Y-146000000D01*
X94652678Y-146000000D01*
X94690000Y-146003676D01*
X94727322Y-146000000D01*
X94727333Y-146000000D01*
X94838986Y-145989003D01*
X94982247Y-145945546D01*
X95114276Y-145874974D01*
X95230001Y-145780001D01*
X95253804Y-145750997D01*
X102404802Y-138600000D01*
X106497659Y-138600000D01*
X106584880Y-138730535D01*
X106779465Y-138925120D01*
X107008273Y-139078005D01*
X107085515Y-139110000D01*
X107008273Y-139141995D01*
X106779465Y-139294880D01*
X106584880Y-139489465D01*
X106497659Y-139620000D01*
X104407325Y-139620000D01*
X104370000Y-139616324D01*
X104332675Y-139620000D01*
X104332667Y-139620000D01*
X104221014Y-139630997D01*
X104077753Y-139674454D01*
X103945724Y-139745026D01*
X103829999Y-139839999D01*
X103806201Y-139868997D01*
X94195199Y-149480000D01*
X94104206Y-149480000D01*
X94097157Y-149466812D01*
X93924081Y-149255919D01*
X93713188Y-149082843D01*
X93472581Y-148954236D01*
X93211507Y-148875040D01*
X93008037Y-148855000D01*
X91371963Y-148855000D01*
X91168493Y-148875040D01*
X90907419Y-148954236D01*
X90666812Y-149082843D01*
X90455919Y-149255919D01*
X90282843Y-149466812D01*
X90154236Y-149707419D01*
X90075040Y-149968493D01*
X90048299Y-150240000D01*
X90075040Y-150511507D01*
X90154236Y-150772581D01*
X90282843Y-151013188D01*
X90455919Y-151224081D01*
X90666812Y-151397157D01*
X90907419Y-151525764D01*
X91168493Y-151604960D01*
X91371963Y-151625000D01*
X93008037Y-151625000D01*
X93211507Y-151604960D01*
X93472581Y-151525764D01*
X93713188Y-151397157D01*
X93924081Y-151224081D01*
X94097157Y-151013188D01*
X94104206Y-151000000D01*
X94472678Y-151000000D01*
X94510000Y-151003676D01*
X94547322Y-151000000D01*
X94547333Y-151000000D01*
X94658986Y-150989003D01*
X94802247Y-150945546D01*
X94934276Y-150874974D01*
X95050001Y-150780001D01*
X95073804Y-150750997D01*
X102832784Y-142992017D01*
X106268090Y-142992017D01*
X106309078Y-143264133D01*
X106402364Y-143523023D01*
X106464344Y-143638980D01*
X106704435Y-143705960D01*
X107490395Y-142920000D01*
X107849605Y-142920000D01*
X108635565Y-143705960D01*
X108875656Y-143638980D01*
X108992756Y-143389952D01*
X109059023Y-143122865D01*
X109065157Y-142992017D01*
X134208090Y-142992017D01*
X134249078Y-143264133D01*
X134342364Y-143523023D01*
X134404344Y-143638980D01*
X134644435Y-143705960D01*
X135430395Y-142920000D01*
X135789605Y-142920000D01*
X136575565Y-143705960D01*
X136815656Y-143638980D01*
X136932756Y-143389952D01*
X136999023Y-143122865D01*
X137011910Y-142847983D01*
X136970922Y-142575867D01*
X136877636Y-142316977D01*
X136815656Y-142201020D01*
X136575565Y-142134040D01*
X135789605Y-142920000D01*
X135430395Y-142920000D01*
X134644435Y-142134040D01*
X134404344Y-142201020D01*
X134287244Y-142450048D01*
X134220977Y-142717135D01*
X134208090Y-142992017D01*
X109065157Y-142992017D01*
X109071910Y-142847983D01*
X109030922Y-142575867D01*
X108937636Y-142316977D01*
X108875656Y-142201020D01*
X108635565Y-142134040D01*
X107849605Y-142920000D01*
X107490395Y-142920000D01*
X106704435Y-142134040D01*
X106464344Y-142201020D01*
X106347244Y-142450048D01*
X106280977Y-142717135D01*
X106268090Y-142992017D01*
X102832784Y-142992017D01*
X104684802Y-141140000D01*
X106497659Y-141140000D01*
X106584880Y-141270535D01*
X106779465Y-141465120D01*
X107008273Y-141618005D01*
X107079943Y-141647692D01*
X107066977Y-141652364D01*
X106951020Y-141714344D01*
X106884040Y-141954435D01*
X107670000Y-142740395D01*
X108455960Y-141954435D01*
X108388980Y-141714344D01*
X108253240Y-141650515D01*
X108331727Y-141618005D01*
X108560535Y-141465120D01*
X108755120Y-141270535D01*
X108908005Y-141041727D01*
X109013314Y-140787490D01*
X109067000Y-140517592D01*
X109067000Y-140242408D01*
X109013314Y-139972510D01*
X108908005Y-139718273D01*
X108755120Y-139489465D01*
X108560535Y-139294880D01*
X108331727Y-139141995D01*
X108254485Y-139110000D01*
X108331727Y-139078005D01*
X108560535Y-138925120D01*
X108755120Y-138730535D01*
X108908005Y-138501727D01*
X109013314Y-138247490D01*
X109067000Y-137977592D01*
X109067000Y-137702408D01*
X109028198Y-137507339D01*
X109085666Y-137512999D01*
X109085676Y-137512999D01*
X109122999Y-137516675D01*
X109160322Y-137512999D01*
X122009668Y-137512999D01*
X122047001Y-137516676D01*
X122084334Y-137512999D01*
X134250676Y-137512999D01*
X134213000Y-137702408D01*
X134213000Y-137977592D01*
X134266686Y-138247490D01*
X134371995Y-138501727D01*
X134524880Y-138730535D01*
X134719465Y-138925120D01*
X134948273Y-139078005D01*
X135025515Y-139110000D01*
X134948273Y-139141995D01*
X134719465Y-139294880D01*
X134524880Y-139489465D01*
X134371995Y-139718273D01*
X134266686Y-139972510D01*
X134213000Y-140242408D01*
X134213000Y-140517592D01*
X134266686Y-140787490D01*
X134371995Y-141041727D01*
X134524880Y-141270535D01*
X134719465Y-141465120D01*
X134948273Y-141618005D01*
X135019943Y-141647692D01*
X135006977Y-141652364D01*
X134891020Y-141714344D01*
X134824040Y-141954435D01*
X135610000Y-142740395D01*
X136395960Y-141954435D01*
X136328980Y-141714344D01*
X136193240Y-141650515D01*
X136271727Y-141618005D01*
X136500535Y-141465120D01*
X136695120Y-141270535D01*
X136782341Y-141140000D01*
X138765199Y-141140000D01*
X148136205Y-150511008D01*
X148159999Y-150540001D01*
X148188992Y-150563795D01*
X148188996Y-150563799D01*
X148218543Y-150588047D01*
X148275724Y-150634974D01*
X148407753Y-150705546D01*
X148551014Y-150749003D01*
X148662667Y-150760000D01*
X148662676Y-150760000D01*
X148699999Y-150763676D01*
X148737322Y-150760000D01*
X150085794Y-150760000D01*
X150092843Y-150773188D01*
X150265919Y-150984081D01*
X150476812Y-151157157D01*
X150717419Y-151285764D01*
X150978493Y-151364960D01*
X151181963Y-151385000D01*
X152818037Y-151385000D01*
X153021507Y-151364960D01*
X153282581Y-151285764D01*
X153523188Y-151157157D01*
X153734081Y-150984081D01*
X153907157Y-150773188D01*
X154035764Y-150532581D01*
X154114960Y-150271507D01*
X154141701Y-150000000D01*
X154114960Y-149728493D01*
X154035764Y-149467419D01*
X153907157Y-149226812D01*
X153734081Y-149015919D01*
X153523188Y-148842843D01*
X153282581Y-148714236D01*
X153021507Y-148635040D01*
X152818037Y-148615000D01*
X151181963Y-148615000D01*
X150978493Y-148635040D01*
X150717419Y-148714236D01*
X150476812Y-148842843D01*
X150265919Y-149015919D01*
X150092843Y-149226812D01*
X150085794Y-149240000D01*
X149014803Y-149240000D01*
X139643804Y-139869003D01*
X139620001Y-139839999D01*
X139504276Y-139745026D01*
X139372247Y-139674454D01*
X139228986Y-139630997D01*
X139117333Y-139620000D01*
X139117322Y-139620000D01*
X139080000Y-139616324D01*
X139042678Y-139620000D01*
X136782341Y-139620000D01*
X136695120Y-139489465D01*
X136500535Y-139294880D01*
X136271727Y-139141995D01*
X136194485Y-139110000D01*
X136271727Y-139078005D01*
X136500535Y-138925120D01*
X136695120Y-138730535D01*
X136782341Y-138600000D01*
X139075199Y-138600000D01*
X145986201Y-145511003D01*
X146009999Y-145540001D01*
X146038997Y-145563799D01*
X146125723Y-145634974D01*
X146180543Y-145664276D01*
X146257753Y-145705546D01*
X146401014Y-145749003D01*
X146512667Y-145760000D01*
X146512676Y-145760000D01*
X146549999Y-145763676D01*
X146587322Y-145760000D01*
X150085794Y-145760000D01*
X150092843Y-145773188D01*
X150265919Y-145984081D01*
X150476812Y-146157157D01*
X150717419Y-146285764D01*
X150978493Y-146364960D01*
X151181963Y-146385000D01*
X152818037Y-146385000D01*
X153021507Y-146364960D01*
X153282581Y-146285764D01*
X153523188Y-146157157D01*
X153734081Y-145984081D01*
X153907157Y-145773188D01*
X153928587Y-145733096D01*
X154240009Y-146044518D01*
X154240010Y-163955481D01*
X153926573Y-164268918D01*
X153819145Y-164110460D01*
X153625061Y-163918972D01*
X153397349Y-163769028D01*
X153144760Y-163666389D01*
X152877000Y-163615000D01*
X152127000Y-163615000D01*
X152127000Y-164873000D01*
X152147000Y-164873000D01*
X152147000Y-165127000D01*
X152127000Y-165127000D01*
X152127000Y-165147000D01*
X151873000Y-165147000D01*
X151873000Y-165127000D01*
X151853000Y-165127000D01*
X151853000Y-164873000D01*
X151873000Y-164873000D01*
X151873000Y-163615000D01*
X151123000Y-163615000D01*
X150855240Y-163666389D01*
X150602651Y-163769028D01*
X150374939Y-163918972D01*
X150180855Y-164110460D01*
X150073427Y-164268918D01*
X136370000Y-150565492D01*
X136370000Y-146632341D01*
X136500535Y-146545120D01*
X136695120Y-146350535D01*
X136782341Y-146220000D01*
X138335199Y-146220000D01*
X150803363Y-158688165D01*
X150717419Y-158714236D01*
X150476812Y-158842843D01*
X150265919Y-159015919D01*
X150092843Y-159226812D01*
X149964236Y-159467419D01*
X149885040Y-159728493D01*
X149858299Y-160000000D01*
X149885040Y-160271507D01*
X149964236Y-160532581D01*
X150092843Y-160773188D01*
X150265919Y-160984081D01*
X150476812Y-161157157D01*
X150717419Y-161285764D01*
X150978493Y-161364960D01*
X151181963Y-161385000D01*
X152818037Y-161385000D01*
X153021507Y-161364960D01*
X153282581Y-161285764D01*
X153523188Y-161157157D01*
X153734081Y-160984081D01*
X153907157Y-160773188D01*
X154035764Y-160532581D01*
X154114960Y-160271507D01*
X154141701Y-160000000D01*
X154114960Y-159728493D01*
X154035764Y-159467419D01*
X153907157Y-159226812D01*
X153734081Y-159015919D01*
X153523188Y-158842843D01*
X153282581Y-158714236D01*
X153021507Y-158635040D01*
X152818037Y-158615000D01*
X152735045Y-158615000D01*
X152705546Y-158517753D01*
X152634974Y-158385723D01*
X152563799Y-158298997D01*
X152540001Y-158269999D01*
X152511003Y-158246201D01*
X149605987Y-155341185D01*
X149907682Y-155341185D01*
X149921827Y-155412684D01*
X150027858Y-155663868D01*
X150180855Y-155889540D01*
X150374939Y-156081028D01*
X150602651Y-156230972D01*
X150855240Y-156333611D01*
X151123000Y-156385000D01*
X151873000Y-156385000D01*
X151873000Y-155127000D01*
X152127000Y-155127000D01*
X152127000Y-156385000D01*
X152877000Y-156385000D01*
X153144760Y-156333611D01*
X153397349Y-156230972D01*
X153625061Y-156081028D01*
X153819145Y-155889540D01*
X153972142Y-155663868D01*
X154078173Y-155412684D01*
X154092318Y-155341185D01*
X153969656Y-155127000D01*
X152127000Y-155127000D01*
X151873000Y-155127000D01*
X150030344Y-155127000D01*
X149907682Y-155341185D01*
X149605987Y-155341185D01*
X148923617Y-154658815D01*
X149907682Y-154658815D01*
X150030344Y-154873000D01*
X151873000Y-154873000D01*
X151873000Y-153615000D01*
X152127000Y-153615000D01*
X152127000Y-154873000D01*
X153969656Y-154873000D01*
X154092318Y-154658815D01*
X154078173Y-154587316D01*
X153972142Y-154336132D01*
X153819145Y-154110460D01*
X153625061Y-153918972D01*
X153397349Y-153769028D01*
X153144760Y-153666389D01*
X152877000Y-153615000D01*
X152127000Y-153615000D01*
X151873000Y-153615000D01*
X151123000Y-153615000D01*
X150855240Y-153666389D01*
X150602651Y-153769028D01*
X150374939Y-153918972D01*
X150180855Y-154110460D01*
X150027858Y-154336132D01*
X149921827Y-154587316D01*
X149907682Y-154658815D01*
X148923617Y-154658815D01*
X139213804Y-144949003D01*
X139190001Y-144919999D01*
X139074276Y-144825026D01*
X138942247Y-144754454D01*
X138798986Y-144710997D01*
X138687333Y-144700000D01*
X138687322Y-144700000D01*
X138650000Y-144696324D01*
X138612678Y-144700000D01*
X136782341Y-144700000D01*
X136695120Y-144569465D01*
X136500535Y-144374880D01*
X136271727Y-144221995D01*
X136200057Y-144192308D01*
X136213023Y-144187636D01*
X136328980Y-144125656D01*
X136395960Y-143885565D01*
X135610000Y-143099605D01*
X134824040Y-143885565D01*
X134891020Y-144125656D01*
X135026760Y-144189485D01*
X134948273Y-144221995D01*
X134719465Y-144374880D01*
X134524880Y-144569465D01*
X134371995Y-144798273D01*
X134266686Y-145052510D01*
X134213000Y-145322408D01*
X134213000Y-145597592D01*
X134266686Y-145867490D01*
X134371995Y-146121727D01*
X134524880Y-146350535D01*
X134719465Y-146545120D01*
X134850001Y-146632341D01*
X134850000Y-150842970D01*
X134846324Y-150880293D01*
X134850000Y-150917615D01*
X134850000Y-150917625D01*
X134860997Y-151029278D01*
X134899788Y-151157157D01*
X134904454Y-151172539D01*
X134975026Y-151304569D01*
X135014871Y-151353119D01*
X135069999Y-151420294D01*
X135099003Y-151444097D01*
X150240918Y-166586013D01*
X150264716Y-166615011D01*
X150380441Y-166709984D01*
X150512470Y-166780556D01*
X150655731Y-166824013D01*
X150767384Y-166835010D01*
X150767394Y-166835010D01*
X150804717Y-166838686D01*
X150842040Y-166835010D01*
X153157961Y-166835010D01*
X153195283Y-166838686D01*
X153232605Y-166835010D01*
X153232616Y-166835010D01*
X153344269Y-166824013D01*
X153487530Y-166780556D01*
X153619559Y-166709984D01*
X153735284Y-166615011D01*
X153759087Y-166586007D01*
X155511012Y-164834083D01*
X155540010Y-164810285D01*
X155566341Y-164778201D01*
X155634983Y-164694561D01*
X155705555Y-164562531D01*
X155749012Y-164419270D01*
X155760009Y-164307617D01*
X155760009Y-164307607D01*
X155763685Y-164270284D01*
X155760009Y-164232962D01*
X155760009Y-145767038D01*
X155763685Y-145729716D01*
X155760009Y-145692393D01*
X155760009Y-145692383D01*
X155749012Y-145580730D01*
X155705555Y-145437469D01*
X155679640Y-145388986D01*
X155634983Y-145305439D01*
X155563808Y-145218713D01*
X155540010Y-145189715D01*
X155511013Y-145165918D01*
X153759087Y-143413993D01*
X153735284Y-143384989D01*
X153619559Y-143290016D01*
X153487530Y-143219444D01*
X153344269Y-143175987D01*
X153232616Y-143164990D01*
X153232605Y-143164990D01*
X153195283Y-143161314D01*
X153157961Y-143164990D01*
X146426202Y-143164990D01*
X139503213Y-136242002D01*
X139479410Y-136212998D01*
X139363685Y-136118025D01*
X139255129Y-136060000D01*
X139575199Y-136060000D01*
X144026201Y-140511003D01*
X144049999Y-140540001D01*
X144165724Y-140634974D01*
X144297753Y-140705546D01*
X144441014Y-140749003D01*
X144552667Y-140760000D01*
X144552675Y-140760000D01*
X144590000Y-140763676D01*
X144627325Y-140760000D01*
X150085794Y-140760000D01*
X150092843Y-140773188D01*
X150265919Y-140984081D01*
X150476812Y-141157157D01*
X150717419Y-141285764D01*
X150978493Y-141364960D01*
X151181963Y-141385000D01*
X152818037Y-141385000D01*
X153021507Y-141364960D01*
X153282581Y-141285764D01*
X153523188Y-141157157D01*
X153734081Y-140984081D01*
X153907157Y-140773188D01*
X154035764Y-140532581D01*
X154114960Y-140271507D01*
X154141701Y-140000000D01*
X154114960Y-139728493D01*
X154035764Y-139467419D01*
X153907157Y-139226812D01*
X153734081Y-139015919D01*
X153523188Y-138842843D01*
X153282581Y-138714236D01*
X153021507Y-138635040D01*
X152818037Y-138615000D01*
X151181963Y-138615000D01*
X150978493Y-138635040D01*
X150717419Y-138714236D01*
X150476812Y-138842843D01*
X150265919Y-139015919D01*
X150092843Y-139226812D01*
X150085794Y-139240000D01*
X144904802Y-139240000D01*
X140453804Y-134789003D01*
X140430001Y-134759999D01*
X140314276Y-134665026D01*
X140182247Y-134594454D01*
X140038986Y-134550997D01*
X139927333Y-134540000D01*
X139927322Y-134540000D01*
X139890000Y-134536324D01*
X139852678Y-134540000D01*
X136782341Y-134540000D01*
X136695120Y-134409465D01*
X136500535Y-134214880D01*
X136271727Y-134061995D01*
X136194485Y-134030000D01*
X136271727Y-133998005D01*
X136500535Y-133845120D01*
X136695120Y-133650535D01*
X136782341Y-133520000D01*
X140975199Y-133520000D01*
X142966205Y-135511008D01*
X142989999Y-135540001D01*
X143018992Y-135563795D01*
X143018996Y-135563799D01*
X143089685Y-135621811D01*
X143105724Y-135634974D01*
X143237753Y-135705546D01*
X143381014Y-135749003D01*
X143492667Y-135760000D01*
X143492676Y-135760000D01*
X143529999Y-135763676D01*
X143567322Y-135760000D01*
X150085794Y-135760000D01*
X150092843Y-135773188D01*
X150265919Y-135984081D01*
X150476812Y-136157157D01*
X150717419Y-136285764D01*
X150978493Y-136364960D01*
X151181963Y-136385000D01*
X152818037Y-136385000D01*
X153021507Y-136364960D01*
X153282581Y-136285764D01*
X153523188Y-136157157D01*
X153734081Y-135984081D01*
X153907157Y-135773188D01*
X154035764Y-135532581D01*
X154114960Y-135271507D01*
X154141701Y-135000000D01*
X154114960Y-134728493D01*
X154035764Y-134467419D01*
X153907157Y-134226812D01*
X153734081Y-134015919D01*
X153523188Y-133842843D01*
X153282581Y-133714236D01*
X153021507Y-133635040D01*
X152818037Y-133615000D01*
X151181963Y-133615000D01*
X150978493Y-133635040D01*
X150717419Y-133714236D01*
X150476812Y-133842843D01*
X150265919Y-134015919D01*
X150092843Y-134226812D01*
X150085794Y-134240000D01*
X143844803Y-134240000D01*
X141853804Y-132249002D01*
X141830001Y-132219999D01*
X141714276Y-132125026D01*
X141582247Y-132054454D01*
X141438986Y-132010997D01*
X141327333Y-132000000D01*
X141327322Y-132000000D01*
X141290000Y-131996324D01*
X141252678Y-132000000D01*
X136782341Y-132000000D01*
X136695120Y-131869465D01*
X136500535Y-131674880D01*
X136271727Y-131521995D01*
X136194485Y-131490000D01*
X136271727Y-131458005D01*
X136500535Y-131305120D01*
X136695120Y-131110535D01*
X136848005Y-130881727D01*
X136898426Y-130760000D01*
X150085794Y-130760000D01*
X150092843Y-130773188D01*
X150265919Y-130984081D01*
X150476812Y-131157157D01*
X150717419Y-131285764D01*
X150978493Y-131364960D01*
X151181963Y-131385000D01*
X152818037Y-131385000D01*
X153021507Y-131364960D01*
X153282581Y-131285764D01*
X153523188Y-131157157D01*
X153734081Y-130984081D01*
X153907157Y-130773188D01*
X154035764Y-130532581D01*
X154114960Y-130271507D01*
X154141701Y-130000000D01*
X154114960Y-129728493D01*
X154035764Y-129467419D01*
X153907157Y-129226812D01*
X153734081Y-129015919D01*
X153523188Y-128842843D01*
X153282581Y-128714236D01*
X153021507Y-128635040D01*
X152818037Y-128615000D01*
X151181963Y-128615000D01*
X150978493Y-128635040D01*
X150717419Y-128714236D01*
X150476812Y-128842843D01*
X150265919Y-129015919D01*
X150092843Y-129226812D01*
X150085794Y-129240000D01*
X136605655Y-129240000D01*
X136500535Y-129134880D01*
X136271727Y-128981995D01*
X136194485Y-128950000D01*
X136271727Y-128918005D01*
X136500535Y-128765120D01*
X136695120Y-128570535D01*
X136782341Y-128440000D01*
X139782678Y-128440000D01*
X139820000Y-128443676D01*
X139857322Y-128440000D01*
X139857333Y-128440000D01*
X139968986Y-128429003D01*
X140112247Y-128385546D01*
X140244276Y-128314974D01*
X140360001Y-128220001D01*
X140383804Y-128190997D01*
X142814802Y-125760000D01*
X150085794Y-125760000D01*
X150092843Y-125773188D01*
X150265919Y-125984081D01*
X150476812Y-126157157D01*
X150717419Y-126285764D01*
X150978493Y-126364960D01*
X151181963Y-126385000D01*
X152818037Y-126385000D01*
X153021507Y-126364960D01*
X153282581Y-126285764D01*
X153523188Y-126157157D01*
X153734081Y-125984081D01*
X153907157Y-125773188D01*
X154035764Y-125532581D01*
X154114960Y-125271507D01*
X154141701Y-125000000D01*
X154114960Y-124728493D01*
X154035764Y-124467419D01*
X153907157Y-124226812D01*
X153734081Y-124015919D01*
X153523188Y-123842843D01*
X153282581Y-123714236D01*
X153021507Y-123635040D01*
X152818037Y-123615000D01*
X151181963Y-123615000D01*
X150978493Y-123635040D01*
X150717419Y-123714236D01*
X150476812Y-123842843D01*
X150265919Y-124015919D01*
X150092843Y-124226812D01*
X150085794Y-124240000D01*
X142537322Y-124240000D01*
X142499999Y-124236324D01*
X142462676Y-124240000D01*
X142462667Y-124240000D01*
X142351014Y-124250997D01*
X142207753Y-124294454D01*
X142075724Y-124365026D01*
X141959999Y-124459999D01*
X141936201Y-124488997D01*
X139505199Y-126920000D01*
X136782341Y-126920000D01*
X136695120Y-126789465D01*
X136500535Y-126594880D01*
X136271727Y-126441995D01*
X136194485Y-126410000D01*
X136271727Y-126378005D01*
X136500535Y-126225120D01*
X136695120Y-126030535D01*
X136782341Y-125900000D01*
X137992678Y-125900000D01*
X138030000Y-125903676D01*
X138067322Y-125900000D01*
X138067333Y-125900000D01*
X138178986Y-125889003D01*
X138322247Y-125845546D01*
X138454276Y-125774974D01*
X138570001Y-125680001D01*
X138593804Y-125650997D01*
X143484802Y-120760000D01*
X150085794Y-120760000D01*
X150092843Y-120773188D01*
X150265919Y-120984081D01*
X150476812Y-121157157D01*
X150717419Y-121285764D01*
X150978493Y-121364960D01*
X151181963Y-121385000D01*
X152818037Y-121385000D01*
X153021507Y-121364960D01*
X153282581Y-121285764D01*
X153523188Y-121157157D01*
X153734081Y-120984081D01*
X153907157Y-120773188D01*
X154035764Y-120532581D01*
X154114960Y-120271507D01*
X154141701Y-120000000D01*
X154114960Y-119728493D01*
X154035764Y-119467419D01*
X153907157Y-119226812D01*
X153734081Y-119015919D01*
X153523188Y-118842843D01*
X153282581Y-118714236D01*
X153021507Y-118635040D01*
X152818037Y-118615000D01*
X151181963Y-118615000D01*
X150978493Y-118635040D01*
X150717419Y-118714236D01*
X150476812Y-118842843D01*
X150265919Y-119015919D01*
X150092843Y-119226812D01*
X150085794Y-119240000D01*
X143207325Y-119240000D01*
X143170000Y-119236324D01*
X143132675Y-119240000D01*
X143132667Y-119240000D01*
X143021014Y-119250997D01*
X142877753Y-119294454D01*
X142745724Y-119365026D01*
X142629999Y-119459999D01*
X142606201Y-119488997D01*
X137715199Y-124380000D01*
X136782341Y-124380000D01*
X136695120Y-124249465D01*
X136500535Y-124054880D01*
X136271727Y-123901995D01*
X136194485Y-123870000D01*
X136271727Y-123838005D01*
X136500535Y-123685120D01*
X136695120Y-123490535D01*
X136782341Y-123360000D01*
X137392678Y-123360000D01*
X137430000Y-123363676D01*
X137467322Y-123360000D01*
X137467333Y-123360000D01*
X137578986Y-123349003D01*
X137722247Y-123305546D01*
X137854276Y-123234974D01*
X137970001Y-123140001D01*
X137993804Y-123110997D01*
X145344802Y-115760000D01*
X150085794Y-115760000D01*
X150092843Y-115773188D01*
X150265919Y-115984081D01*
X150476812Y-116157157D01*
X150717419Y-116285764D01*
X150978493Y-116364960D01*
X151181963Y-116385000D01*
X152818037Y-116385000D01*
X153021507Y-116364960D01*
X153282581Y-116285764D01*
X153523188Y-116157157D01*
X153734081Y-115984081D01*
X153907157Y-115773188D01*
X154035764Y-115532581D01*
X154114960Y-115271507D01*
X154141701Y-115000000D01*
X154114960Y-114728493D01*
X154035764Y-114467419D01*
X153907157Y-114226812D01*
X153734081Y-114015919D01*
X153523188Y-113842843D01*
X153282581Y-113714236D01*
X153021507Y-113635040D01*
X152818037Y-113615000D01*
X151181963Y-113615000D01*
X150978493Y-113635040D01*
X150717419Y-113714236D01*
X150476812Y-113842843D01*
X150265919Y-114015919D01*
X150092843Y-114226812D01*
X150085794Y-114240000D01*
X145067322Y-114240000D01*
X145029999Y-114236324D01*
X144992676Y-114240000D01*
X144992667Y-114240000D01*
X144881014Y-114250997D01*
X144737753Y-114294454D01*
X144605723Y-114365026D01*
X144522083Y-114433668D01*
X144489999Y-114459999D01*
X144466201Y-114488997D01*
X137115199Y-121840000D01*
X136782341Y-121840000D01*
X136695120Y-121709465D01*
X136500535Y-121514880D01*
X136271727Y-121361995D01*
X136194485Y-121330000D01*
X136271727Y-121298005D01*
X136500535Y-121145120D01*
X136695120Y-120950535D01*
X136848005Y-120721727D01*
X136953314Y-120467490D01*
X137007000Y-120197592D01*
X137007000Y-119922408D01*
X136976372Y-119768429D01*
X145984803Y-110760000D01*
X150085794Y-110760000D01*
X150092843Y-110773188D01*
X150265919Y-110984081D01*
X150476812Y-111157157D01*
X150717419Y-111285764D01*
X150978493Y-111364960D01*
X151181963Y-111385000D01*
X152818037Y-111385000D01*
X153021507Y-111364960D01*
X153282581Y-111285764D01*
X153523188Y-111157157D01*
X153734081Y-110984081D01*
X153907157Y-110773188D01*
X154035764Y-110532581D01*
X154114960Y-110271507D01*
X154141701Y-110000000D01*
X154114960Y-109728493D01*
X154035764Y-109467419D01*
X153907157Y-109226812D01*
X153734081Y-109015919D01*
X153523188Y-108842843D01*
X153282581Y-108714236D01*
X153021507Y-108635040D01*
X152818037Y-108615000D01*
X151181963Y-108615000D01*
X150978493Y-108635040D01*
X150717419Y-108714236D01*
X150476812Y-108842843D01*
X150265919Y-109015919D01*
X150092843Y-109226812D01*
X150085794Y-109240000D01*
X145707322Y-109240000D01*
X145669999Y-109236324D01*
X145632676Y-109240000D01*
X145632667Y-109240000D01*
X145521014Y-109250997D01*
X145377753Y-109294454D01*
X145245724Y-109365026D01*
X145245722Y-109365027D01*
X145245723Y-109365027D01*
X145158996Y-109436201D01*
X145158992Y-109436205D01*
X145129999Y-109459999D01*
X145106205Y-109488992D01*
X137007000Y-117588199D01*
X137007000Y-117382408D01*
X136976372Y-117228429D01*
X148444802Y-105760000D01*
X150085794Y-105760000D01*
X150092843Y-105773188D01*
X150265919Y-105984081D01*
X150476812Y-106157157D01*
X150717419Y-106285764D01*
X150978493Y-106364960D01*
X151181963Y-106385000D01*
X152818037Y-106385000D01*
X153021507Y-106364960D01*
X153282581Y-106285764D01*
X153523188Y-106157157D01*
X153734081Y-105984081D01*
X153907157Y-105773188D01*
X154035764Y-105532581D01*
X154114960Y-105271507D01*
X154141701Y-105000000D01*
X154114960Y-104728493D01*
X154035764Y-104467419D01*
X153907157Y-104226812D01*
X153734081Y-104015919D01*
X153523188Y-103842843D01*
X153282581Y-103714236D01*
X153021507Y-103635040D01*
X152818037Y-103615000D01*
X151181963Y-103615000D01*
X150978493Y-103635040D01*
X150717419Y-103714236D01*
X150476812Y-103842843D01*
X150265919Y-104015919D01*
X150092843Y-104226812D01*
X150085794Y-104240000D01*
X148167323Y-104240000D01*
X148130000Y-104236324D01*
X148092677Y-104240000D01*
X148092667Y-104240000D01*
X147981014Y-104250997D01*
X147837753Y-104294454D01*
X147705724Y-104365026D01*
X147589999Y-104459999D01*
X147566201Y-104488997D01*
X137007000Y-115048199D01*
X137007000Y-114842408D01*
X136976372Y-114688429D01*
X150496905Y-101167897D01*
X150717419Y-101285764D01*
X150978493Y-101364960D01*
X151181963Y-101385000D01*
X152818037Y-101385000D01*
X153021507Y-101364960D01*
X153282581Y-101285764D01*
X153523188Y-101157157D01*
X153734081Y-100984081D01*
X153907157Y-100773188D01*
X154035764Y-100532581D01*
X154114960Y-100271507D01*
X154141701Y-100000000D01*
X154114960Y-99728493D01*
X154035764Y-99467419D01*
X153907157Y-99226812D01*
X153734081Y-99015919D01*
X153523188Y-98842843D01*
X153282581Y-98714236D01*
X153021507Y-98635040D01*
X152818037Y-98615000D01*
X151181963Y-98615000D01*
X150978493Y-98635040D01*
X150717419Y-98714236D01*
X150476812Y-98842843D01*
X150265919Y-99015919D01*
X150092843Y-99226812D01*
X149964236Y-99467419D01*
X149913442Y-99634865D01*
X149875724Y-99655026D01*
X149759999Y-99749999D01*
X149736201Y-99778997D01*
X137007000Y-112508199D01*
X137007000Y-112302408D01*
X136976372Y-112148429D01*
X139581003Y-109543799D01*
X139610001Y-109520001D01*
X139659243Y-109460000D01*
X139704974Y-109404277D01*
X139775546Y-109272247D01*
X139785328Y-109240000D01*
X139819003Y-109128986D01*
X139830000Y-109017333D01*
X139830000Y-109017323D01*
X139833676Y-108980000D01*
X139830000Y-108942677D01*
X139830000Y-102494801D01*
X146564803Y-95760000D01*
X150085794Y-95760000D01*
X150092843Y-95773188D01*
X150265919Y-95984081D01*
X150476812Y-96157157D01*
X150717419Y-96285764D01*
X150978493Y-96364960D01*
X151181963Y-96385000D01*
X151317307Y-96385000D01*
X151365026Y-96474275D01*
X151459999Y-96590001D01*
X151575724Y-96684974D01*
X151707753Y-96755546D01*
X151851014Y-96799003D01*
X152000000Y-96813677D01*
X152148985Y-96799003D01*
X152292246Y-96755546D01*
X152424275Y-96684974D01*
X152540001Y-96590001D01*
X152634974Y-96474276D01*
X152682694Y-96385000D01*
X152818037Y-96385000D01*
X153021507Y-96364960D01*
X153282581Y-96285764D01*
X153523188Y-96157157D01*
X153734081Y-95984081D01*
X153907157Y-95773188D01*
X154035764Y-95532581D01*
X154114960Y-95271507D01*
X154141701Y-95000000D01*
X154114960Y-94728493D01*
X154035764Y-94467419D01*
X153907157Y-94226812D01*
X153734081Y-94015919D01*
X153523188Y-93842843D01*
X153282581Y-93714236D01*
X153021507Y-93635040D01*
X152818037Y-93615000D01*
X151181963Y-93615000D01*
X150978493Y-93635040D01*
X150717419Y-93714236D01*
X150476812Y-93842843D01*
X150265919Y-94015919D01*
X150092843Y-94226812D01*
X150085794Y-94240000D01*
X146287322Y-94240000D01*
X146249999Y-94236324D01*
X146212676Y-94240000D01*
X146212667Y-94240000D01*
X146101014Y-94250997D01*
X145957753Y-94294454D01*
X145825724Y-94365026D01*
X145825722Y-94365027D01*
X145825723Y-94365027D01*
X145738996Y-94436201D01*
X145738992Y-94436205D01*
X145709999Y-94459999D01*
X145686205Y-94488992D01*
X138559003Y-101616196D01*
X138529999Y-101639999D01*
X138505379Y-101669999D01*
X138435026Y-101755724D01*
X138401212Y-101818985D01*
X138364454Y-101887754D01*
X138320997Y-102031015D01*
X138310000Y-102142668D01*
X138310000Y-102142678D01*
X138306324Y-102180000D01*
X138310000Y-102217323D01*
X138310001Y-108665197D01*
X137007000Y-109968198D01*
X137007000Y-109762408D01*
X136953314Y-109492510D01*
X136848005Y-109238273D01*
X136695120Y-109009465D01*
X136500535Y-108814880D01*
X136370000Y-108727659D01*
X136370000Y-102444801D01*
X148054802Y-90760000D01*
X149862913Y-90760000D01*
X149874188Y-90874482D01*
X149910498Y-90994180D01*
X149969463Y-91104494D01*
X150048815Y-91201185D01*
X150145506Y-91280537D01*
X150255820Y-91339502D01*
X150375518Y-91375812D01*
X150500000Y-91388072D01*
X153500000Y-91388072D01*
X153624482Y-91375812D01*
X153744180Y-91339502D01*
X153854494Y-91280537D01*
X153951185Y-91201185D01*
X154030537Y-91104494D01*
X154089502Y-90994180D01*
X154125812Y-90874482D01*
X154138072Y-90750000D01*
X154138072Y-89250000D01*
X154125812Y-89125518D01*
X154089502Y-89005820D01*
X154030537Y-88895506D01*
X153951185Y-88798815D01*
X153854494Y-88719463D01*
X153744180Y-88660498D01*
X153624482Y-88624188D01*
X153500000Y-88611928D01*
X150500000Y-88611928D01*
X150375518Y-88624188D01*
X150255820Y-88660498D01*
X150145506Y-88719463D01*
X150048815Y-88798815D01*
X149969463Y-88895506D01*
X149910498Y-89005820D01*
X149874188Y-89125518D01*
X149862913Y-89240000D01*
X147777333Y-89240000D01*
X147740000Y-89236323D01*
X147702667Y-89240000D01*
X147591014Y-89250997D01*
X147447753Y-89294454D01*
X147315724Y-89365026D01*
X147199999Y-89459999D01*
X147176201Y-89488997D01*
X135098998Y-101566201D01*
X135070000Y-101589999D01*
X135046202Y-101618997D01*
X135046201Y-101618998D01*
X134975026Y-101705724D01*
X134904454Y-101837754D01*
X134860998Y-101981015D01*
X134846324Y-102130000D01*
X134850001Y-102167332D01*
X134850000Y-108727659D01*
X134719465Y-108814880D01*
X134524880Y-109009465D01*
X134371995Y-109238273D01*
X134266686Y-109492510D01*
X134213000Y-109762408D01*
X134213000Y-110037592D01*
X134266686Y-110307490D01*
X134371995Y-110561727D01*
X134524880Y-110790535D01*
X134719465Y-110985120D01*
X134948273Y-111138005D01*
X135025515Y-111170000D01*
X134948273Y-111201995D01*
X134719465Y-111354880D01*
X134524880Y-111549465D01*
X134371995Y-111778273D01*
X134266686Y-112032510D01*
X134213000Y-112302408D01*
X134213000Y-112577592D01*
X134266686Y-112847490D01*
X134371995Y-113101727D01*
X134524880Y-113330535D01*
X134719465Y-113525120D01*
X134948273Y-113678005D01*
X135025515Y-113710000D01*
X134948273Y-113741995D01*
X134719465Y-113894880D01*
X134524880Y-114089465D01*
X134371995Y-114318273D01*
X134266686Y-114572510D01*
X134213000Y-114842408D01*
X134213000Y-115117592D01*
X134266686Y-115387490D01*
X134371995Y-115641727D01*
X134524880Y-115870535D01*
X134719465Y-116065120D01*
X134948273Y-116218005D01*
X135025515Y-116250000D01*
X134948273Y-116281995D01*
X134719465Y-116434880D01*
X134524880Y-116629465D01*
X134371995Y-116858273D01*
X134266686Y-117112510D01*
X134213000Y-117382408D01*
X134213000Y-117657592D01*
X134266686Y-117927490D01*
X134371995Y-118181727D01*
X134524880Y-118410535D01*
X134719465Y-118605120D01*
X134948273Y-118758005D01*
X135025515Y-118790000D01*
X134948273Y-118821995D01*
X134719465Y-118974880D01*
X134524880Y-119169465D01*
X134371995Y-119398273D01*
X134266686Y-119652510D01*
X134213000Y-119922408D01*
X134213000Y-120197592D01*
X134266686Y-120467490D01*
X134371995Y-120721727D01*
X134524880Y-120950535D01*
X134719465Y-121145120D01*
X134948273Y-121298005D01*
X135025515Y-121330000D01*
X134948273Y-121361995D01*
X134719465Y-121514880D01*
X134524880Y-121709465D01*
X134437659Y-121840000D01*
X126137322Y-121840000D01*
X126099999Y-121836324D01*
X126062676Y-121840000D01*
X126062667Y-121840000D01*
X125951014Y-121850997D01*
X125807753Y-121894454D01*
X125675723Y-121965026D01*
X125592083Y-122033668D01*
X125559999Y-122059999D01*
X125536201Y-122088997D01*
X121536004Y-126089195D01*
X121507000Y-126112998D01*
X121470760Y-126157157D01*
X121412027Y-126228723D01*
X121383015Y-126283000D01*
X121341455Y-126360753D01*
X121297998Y-126504014D01*
X121287001Y-126615667D01*
X121287001Y-126615677D01*
X121283325Y-126652999D01*
X121287001Y-126690321D01*
X121287002Y-135992999D01*
X109437801Y-135992999D01*
X109036372Y-135591570D01*
X109067000Y-135437592D01*
X109067000Y-135162408D01*
X109013314Y-134892510D01*
X108908005Y-134638273D01*
X108755120Y-134409465D01*
X108560535Y-134214880D01*
X108331727Y-134061995D01*
X108260057Y-134032308D01*
X108273023Y-134027636D01*
X108388980Y-133965656D01*
X108455960Y-133725565D01*
X107670000Y-132939605D01*
X106884040Y-133725565D01*
X106951020Y-133965656D01*
X107086760Y-134029485D01*
X107008273Y-134061995D01*
X106779465Y-134214880D01*
X106584880Y-134409465D01*
X106497659Y-134540000D01*
X97167322Y-134540000D01*
X97130000Y-134536324D01*
X97092677Y-134540000D01*
X97092667Y-134540000D01*
X96981014Y-134550997D01*
X96837753Y-134594454D01*
X96705723Y-134665026D01*
X96653661Y-134707753D01*
X96589999Y-134759999D01*
X96566201Y-134788997D01*
X92500199Y-138855000D01*
X91371963Y-138855000D01*
X91168493Y-138875040D01*
X90907419Y-138954236D01*
X90666812Y-139082843D01*
X90455919Y-139255919D01*
X90282843Y-139466812D01*
X90154236Y-139707419D01*
X90075040Y-139968493D01*
X90048299Y-140240000D01*
X83660000Y-140240000D01*
X83660000Y-135581185D01*
X90097682Y-135581185D01*
X90111827Y-135652684D01*
X90217858Y-135903868D01*
X90370855Y-136129540D01*
X90564939Y-136321028D01*
X90792651Y-136470972D01*
X91045240Y-136573611D01*
X91313000Y-136625000D01*
X92063000Y-136625000D01*
X92063000Y-135367000D01*
X92317000Y-135367000D01*
X92317000Y-136625000D01*
X93067000Y-136625000D01*
X93334760Y-136573611D01*
X93587349Y-136470972D01*
X93815061Y-136321028D01*
X94009145Y-136129540D01*
X94162142Y-135903868D01*
X94268173Y-135652684D01*
X94282318Y-135581185D01*
X94159656Y-135367000D01*
X92317000Y-135367000D01*
X92063000Y-135367000D01*
X90220344Y-135367000D01*
X90097682Y-135581185D01*
X83660000Y-135581185D01*
X83660000Y-134898815D01*
X90097682Y-134898815D01*
X90220344Y-135113000D01*
X92063000Y-135113000D01*
X92063000Y-133855000D01*
X92317000Y-133855000D01*
X92317000Y-135113000D01*
X94159656Y-135113000D01*
X94282318Y-134898815D01*
X94268173Y-134827316D01*
X94162142Y-134576132D01*
X94009145Y-134350460D01*
X93815061Y-134158972D01*
X93587349Y-134009028D01*
X93334760Y-133906389D01*
X93067000Y-133855000D01*
X92317000Y-133855000D01*
X92063000Y-133855000D01*
X91313000Y-133855000D01*
X91045240Y-133906389D01*
X90792651Y-134009028D01*
X90564939Y-134158972D01*
X90370855Y-134350460D01*
X90217858Y-134576132D01*
X90111827Y-134827316D01*
X90097682Y-134898815D01*
X83660000Y-134898815D01*
X83660000Y-132832017D01*
X106268090Y-132832017D01*
X106309078Y-133104133D01*
X106402364Y-133363023D01*
X106464344Y-133478980D01*
X106704435Y-133545960D01*
X107490395Y-132760000D01*
X107849605Y-132760000D01*
X108635565Y-133545960D01*
X108875656Y-133478980D01*
X108992756Y-133229952D01*
X109059023Y-132962865D01*
X109071910Y-132687983D01*
X109030922Y-132415867D01*
X108937636Y-132156977D01*
X108875656Y-132041020D01*
X108635565Y-131974040D01*
X107849605Y-132760000D01*
X107490395Y-132760000D01*
X106704435Y-131974040D01*
X106464344Y-132041020D01*
X106347244Y-132290048D01*
X106280977Y-132557135D01*
X106268090Y-132832017D01*
X83660000Y-132832017D01*
X83660000Y-90240000D01*
X90048299Y-90240000D01*
X90075040Y-90511507D01*
X90154236Y-90772581D01*
X90282843Y-91013188D01*
X90455919Y-91224081D01*
X90666812Y-91397157D01*
X90907419Y-91525764D01*
X91168493Y-91604960D01*
X91371963Y-91625000D01*
X93008037Y-91625000D01*
X93211507Y-91604960D01*
X93472581Y-91525764D01*
X93713188Y-91397157D01*
X93924081Y-91224081D01*
X94097157Y-91013188D01*
X94104206Y-91000000D01*
X101965199Y-91000000D01*
X106910001Y-95944803D01*
X106910000Y-108727659D01*
X106779465Y-108814880D01*
X106584880Y-109009465D01*
X106431995Y-109238273D01*
X106326686Y-109492510D01*
X106273000Y-109762408D01*
X106273000Y-110037592D01*
X106326686Y-110307490D01*
X106431995Y-110561727D01*
X106584880Y-110790535D01*
X106779465Y-110985120D01*
X107008273Y-111138005D01*
X107085515Y-111170000D01*
X107008273Y-111201995D01*
X106779465Y-111354880D01*
X106584880Y-111549465D01*
X106497659Y-111680000D01*
X106404802Y-111680000D01*
X102960000Y-108235199D01*
X102960000Y-97587322D01*
X102963676Y-97549999D01*
X102960000Y-97512676D01*
X102960000Y-97512667D01*
X102949003Y-97401014D01*
X102905546Y-97257753D01*
X102834974Y-97125724D01*
X102740001Y-97009999D01*
X102711003Y-96986201D01*
X100453804Y-94729003D01*
X100430001Y-94699999D01*
X100314276Y-94605026D01*
X100182247Y-94534454D01*
X100038986Y-94490997D01*
X99927333Y-94480000D01*
X99927322Y-94480000D01*
X99890000Y-94476324D01*
X99852678Y-94480000D01*
X94104206Y-94480000D01*
X94097157Y-94466812D01*
X93924081Y-94255919D01*
X93713188Y-94082843D01*
X93472581Y-93954236D01*
X93211507Y-93875040D01*
X93008037Y-93855000D01*
X91371963Y-93855000D01*
X91168493Y-93875040D01*
X90907419Y-93954236D01*
X90666812Y-94082843D01*
X90455919Y-94255919D01*
X90282843Y-94466812D01*
X90154236Y-94707419D01*
X90075040Y-94968493D01*
X90048299Y-95240000D01*
X90075040Y-95511507D01*
X90154236Y-95772581D01*
X90282843Y-96013188D01*
X90455919Y-96224081D01*
X90666812Y-96397157D01*
X90907419Y-96525764D01*
X91168493Y-96604960D01*
X91371963Y-96625000D01*
X93008037Y-96625000D01*
X93211507Y-96604960D01*
X93472581Y-96525764D01*
X93713188Y-96397157D01*
X93924081Y-96224081D01*
X94097157Y-96013188D01*
X94104206Y-96000000D01*
X99575199Y-96000000D01*
X101440001Y-97864803D01*
X101440000Y-108512678D01*
X101436324Y-108550000D01*
X101440000Y-108587322D01*
X101440000Y-108587332D01*
X101450997Y-108698985D01*
X101486153Y-108814880D01*
X101494454Y-108842246D01*
X101565026Y-108974276D01*
X101593905Y-109009465D01*
X101659999Y-109090001D01*
X101689003Y-109113804D01*
X105526201Y-112951003D01*
X105549999Y-112980001D01*
X105665724Y-113074974D01*
X105797753Y-113145546D01*
X105941014Y-113189003D01*
X106052667Y-113200000D01*
X106052675Y-113200000D01*
X106090000Y-113203676D01*
X106127325Y-113200000D01*
X106497659Y-113200000D01*
X106584880Y-113330535D01*
X106779465Y-113525120D01*
X107008273Y-113678005D01*
X107085515Y-113710000D01*
X107008273Y-113741995D01*
X106779465Y-113894880D01*
X106584880Y-114089465D01*
X106497659Y-114220000D01*
X106154802Y-114220000D01*
X99260000Y-107325199D01*
X99260000Y-101707322D01*
X99263676Y-101669999D01*
X99260000Y-101632676D01*
X99260000Y-101632667D01*
X99249003Y-101521014D01*
X99205546Y-101377753D01*
X99134974Y-101245724D01*
X99117212Y-101224081D01*
X99063799Y-101158996D01*
X99063795Y-101158992D01*
X99040001Y-101129999D01*
X99011008Y-101106205D01*
X97633803Y-99729002D01*
X97610001Y-99699999D01*
X97494276Y-99605026D01*
X97362247Y-99534454D01*
X97218986Y-99490997D01*
X97107333Y-99480000D01*
X97107322Y-99480000D01*
X97070000Y-99476324D01*
X97032678Y-99480000D01*
X94104206Y-99480000D01*
X94097157Y-99466812D01*
X93924081Y-99255919D01*
X93713188Y-99082843D01*
X93472581Y-98954236D01*
X93211507Y-98875040D01*
X93008037Y-98855000D01*
X91371963Y-98855000D01*
X91168493Y-98875040D01*
X90907419Y-98954236D01*
X90666812Y-99082843D01*
X90455919Y-99255919D01*
X90282843Y-99466812D01*
X90154236Y-99707419D01*
X90075040Y-99968493D01*
X90048299Y-100240000D01*
X90075040Y-100511507D01*
X90154236Y-100772581D01*
X90282843Y-101013188D01*
X90455919Y-101224081D01*
X90666812Y-101397157D01*
X90907419Y-101525764D01*
X91168493Y-101604960D01*
X91371963Y-101625000D01*
X93008037Y-101625000D01*
X93211507Y-101604960D01*
X93472581Y-101525764D01*
X93713188Y-101397157D01*
X93924081Y-101224081D01*
X94097157Y-101013188D01*
X94104206Y-101000000D01*
X96755199Y-101000000D01*
X97740001Y-101984804D01*
X97740000Y-107602677D01*
X97736324Y-107640000D01*
X97740000Y-107677322D01*
X97740000Y-107677332D01*
X97750997Y-107788985D01*
X97794454Y-107932246D01*
X97865026Y-108064276D01*
X97904871Y-108112826D01*
X97959999Y-108180001D01*
X97989003Y-108203804D01*
X105276201Y-115491003D01*
X105299999Y-115520001D01*
X105328997Y-115543799D01*
X105415724Y-115614974D01*
X105547753Y-115685546D01*
X105691014Y-115729003D01*
X105840000Y-115743677D01*
X105877333Y-115740000D01*
X106497659Y-115740000D01*
X106584880Y-115870535D01*
X106779465Y-116065120D01*
X107008273Y-116218005D01*
X107085515Y-116250000D01*
X107008273Y-116281995D01*
X106779465Y-116434880D01*
X106584880Y-116629465D01*
X106497659Y-116760000D01*
X106134802Y-116760000D01*
X97510000Y-108135199D01*
X97510000Y-105927323D01*
X97513676Y-105890000D01*
X97510000Y-105852677D01*
X97510000Y-105852667D01*
X97499003Y-105741014D01*
X97455546Y-105597753D01*
X97384974Y-105465724D01*
X97290001Y-105349999D01*
X97261004Y-105326202D01*
X96663803Y-104729002D01*
X96640001Y-104699999D01*
X96524276Y-104605026D01*
X96392247Y-104534454D01*
X96248986Y-104490997D01*
X96137333Y-104480000D01*
X96137322Y-104480000D01*
X96100000Y-104476324D01*
X96062678Y-104480000D01*
X94104206Y-104480000D01*
X94097157Y-104466812D01*
X93924081Y-104255919D01*
X93713188Y-104082843D01*
X93472581Y-103954236D01*
X93211507Y-103875040D01*
X93008037Y-103855000D01*
X91371963Y-103855000D01*
X91168493Y-103875040D01*
X90907419Y-103954236D01*
X90666812Y-104082843D01*
X90455919Y-104255919D01*
X90282843Y-104466812D01*
X90154236Y-104707419D01*
X90075040Y-104968493D01*
X90048299Y-105240000D01*
X90075040Y-105511507D01*
X90154236Y-105772581D01*
X90282843Y-106013188D01*
X90455919Y-106224081D01*
X90666812Y-106397157D01*
X90907419Y-106525764D01*
X91168493Y-106604960D01*
X91371963Y-106625000D01*
X93008037Y-106625000D01*
X93211507Y-106604960D01*
X93472581Y-106525764D01*
X93713188Y-106397157D01*
X93924081Y-106224081D01*
X94097157Y-106013188D01*
X94104206Y-106000000D01*
X95785199Y-106000000D01*
X95990000Y-106204802D01*
X95990001Y-108412668D01*
X95986324Y-108450000D01*
X96000998Y-108598985D01*
X96044454Y-108742246D01*
X96115026Y-108874276D01*
X96180648Y-108954236D01*
X96210000Y-108990001D01*
X96238998Y-109013799D01*
X105256201Y-118031003D01*
X105279999Y-118060001D01*
X105308997Y-118083799D01*
X105395723Y-118154974D01*
X105527753Y-118225546D01*
X105671014Y-118269003D01*
X105782667Y-118280000D01*
X105782677Y-118280000D01*
X105819999Y-118283676D01*
X105857322Y-118280000D01*
X106497659Y-118280000D01*
X106584880Y-118410535D01*
X106779465Y-118605120D01*
X107008273Y-118758005D01*
X107085515Y-118790000D01*
X107008273Y-118821995D01*
X106779465Y-118974880D01*
X106584880Y-119169465D01*
X106497659Y-119300000D01*
X105684802Y-119300000D01*
X96113804Y-109729003D01*
X96090001Y-109699999D01*
X95974276Y-109605026D01*
X95842247Y-109534454D01*
X95698986Y-109490997D01*
X95587333Y-109480000D01*
X95587322Y-109480000D01*
X95550000Y-109476324D01*
X95512678Y-109480000D01*
X94104206Y-109480000D01*
X94097157Y-109466812D01*
X93924081Y-109255919D01*
X93713188Y-109082843D01*
X93472581Y-108954236D01*
X93211507Y-108875040D01*
X93008037Y-108855000D01*
X91371963Y-108855000D01*
X91168493Y-108875040D01*
X90907419Y-108954236D01*
X90666812Y-109082843D01*
X90455919Y-109255919D01*
X90282843Y-109466812D01*
X90154236Y-109707419D01*
X90075040Y-109968493D01*
X90048299Y-110240000D01*
X90075040Y-110511507D01*
X90154236Y-110772581D01*
X90282843Y-111013188D01*
X90455919Y-111224081D01*
X90666812Y-111397157D01*
X90907419Y-111525764D01*
X91168493Y-111604960D01*
X91371963Y-111625000D01*
X93008037Y-111625000D01*
X93211507Y-111604960D01*
X93472581Y-111525764D01*
X93713188Y-111397157D01*
X93924081Y-111224081D01*
X94097157Y-111013188D01*
X94104206Y-111000000D01*
X95235199Y-111000000D01*
X104806201Y-120571003D01*
X104829999Y-120600001D01*
X104945724Y-120694974D01*
X105077753Y-120765546D01*
X105221014Y-120809003D01*
X105332667Y-120820000D01*
X105332676Y-120820000D01*
X105369999Y-120823676D01*
X105407322Y-120820000D01*
X106497659Y-120820000D01*
X106584880Y-120950535D01*
X106779465Y-121145120D01*
X107008273Y-121298005D01*
X107085515Y-121330000D01*
X107008273Y-121361995D01*
X106779465Y-121514880D01*
X106584880Y-121709465D01*
X106497659Y-121840000D01*
X103494802Y-121840000D01*
X96383804Y-114729003D01*
X96360001Y-114699999D01*
X96244276Y-114605026D01*
X96112247Y-114534454D01*
X95968986Y-114490997D01*
X95857333Y-114480000D01*
X95857322Y-114480000D01*
X95820000Y-114476324D01*
X95782678Y-114480000D01*
X94104206Y-114480000D01*
X94097157Y-114466812D01*
X93924081Y-114255919D01*
X93713188Y-114082843D01*
X93472581Y-113954236D01*
X93211507Y-113875040D01*
X93008037Y-113855000D01*
X91371963Y-113855000D01*
X91168493Y-113875040D01*
X90907419Y-113954236D01*
X90666812Y-114082843D01*
X90455919Y-114255919D01*
X90282843Y-114466812D01*
X90154236Y-114707419D01*
X90075040Y-114968493D01*
X90048299Y-115240000D01*
X90075040Y-115511507D01*
X90154236Y-115772581D01*
X90282843Y-116013188D01*
X90455919Y-116224081D01*
X90666812Y-116397157D01*
X90907419Y-116525764D01*
X91168493Y-116604960D01*
X91371963Y-116625000D01*
X93008037Y-116625000D01*
X93211507Y-116604960D01*
X93472581Y-116525764D01*
X93713188Y-116397157D01*
X93924081Y-116224081D01*
X94097157Y-116013188D01*
X94104206Y-116000000D01*
X95505199Y-116000000D01*
X102616201Y-123111003D01*
X102639999Y-123140001D01*
X102755724Y-123234974D01*
X102887753Y-123305546D01*
X103031014Y-123349003D01*
X103142667Y-123360000D01*
X103142677Y-123360000D01*
X103180000Y-123363676D01*
X103217323Y-123360000D01*
X106497659Y-123360000D01*
X106584880Y-123490535D01*
X106779465Y-123685120D01*
X107008273Y-123838005D01*
X107085515Y-123870000D01*
X107008273Y-123901995D01*
X106779465Y-124054880D01*
X106584880Y-124249465D01*
X106497659Y-124380000D01*
X102834803Y-124380000D01*
X98183804Y-119729003D01*
X98160001Y-119699999D01*
X98044276Y-119605026D01*
X97912247Y-119534454D01*
X97768986Y-119490997D01*
X97657333Y-119480000D01*
X97657322Y-119480000D01*
X97620000Y-119476324D01*
X97582678Y-119480000D01*
X94104206Y-119480000D01*
X94097157Y-119466812D01*
X93924081Y-119255919D01*
X93713188Y-119082843D01*
X93472581Y-118954236D01*
X93211507Y-118875040D01*
X93008037Y-118855000D01*
X91371963Y-118855000D01*
X91168493Y-118875040D01*
X90907419Y-118954236D01*
X90666812Y-119082843D01*
X90455919Y-119255919D01*
X90282843Y-119466812D01*
X90154236Y-119707419D01*
X90075040Y-119968493D01*
X90048299Y-120240000D01*
X90075040Y-120511507D01*
X90154236Y-120772581D01*
X90282843Y-121013188D01*
X90455919Y-121224081D01*
X90666812Y-121397157D01*
X90907419Y-121525764D01*
X91168493Y-121604960D01*
X91371963Y-121625000D01*
X93008037Y-121625000D01*
X93211507Y-121604960D01*
X93472581Y-121525764D01*
X93713188Y-121397157D01*
X93924081Y-121224081D01*
X94097157Y-121013188D01*
X94104206Y-121000000D01*
X97305199Y-121000000D01*
X101956205Y-125651008D01*
X101979999Y-125680001D01*
X102008992Y-125703795D01*
X102008996Y-125703799D01*
X102064078Y-125749003D01*
X102095724Y-125774974D01*
X102227753Y-125845546D01*
X102371014Y-125889003D01*
X102482667Y-125900000D01*
X102482676Y-125900000D01*
X102519999Y-125903676D01*
X102557322Y-125900000D01*
X106497659Y-125900000D01*
X106584880Y-126030535D01*
X106779465Y-126225120D01*
X107008273Y-126378005D01*
X107085515Y-126410000D01*
X107008273Y-126441995D01*
X106779465Y-126594880D01*
X106584880Y-126789465D01*
X106497659Y-126920000D01*
X102084802Y-126920000D01*
X99893804Y-124729003D01*
X99870001Y-124699999D01*
X99754276Y-124605026D01*
X99622247Y-124534454D01*
X99478986Y-124490997D01*
X99367333Y-124480000D01*
X99367322Y-124480000D01*
X99330000Y-124476324D01*
X99292678Y-124480000D01*
X94104206Y-124480000D01*
X94097157Y-124466812D01*
X93924081Y-124255919D01*
X93713188Y-124082843D01*
X93472581Y-123954236D01*
X93211507Y-123875040D01*
X93008037Y-123855000D01*
X91371963Y-123855000D01*
X91168493Y-123875040D01*
X90907419Y-123954236D01*
X90666812Y-124082843D01*
X90455919Y-124255919D01*
X90282843Y-124466812D01*
X90154236Y-124707419D01*
X90075040Y-124968493D01*
X90048299Y-125240000D01*
X90075040Y-125511507D01*
X90154236Y-125772581D01*
X90282843Y-126013188D01*
X90455919Y-126224081D01*
X90666812Y-126397157D01*
X90907419Y-126525764D01*
X91168493Y-126604960D01*
X91371963Y-126625000D01*
X93008037Y-126625000D01*
X93211507Y-126604960D01*
X93472581Y-126525764D01*
X93713188Y-126397157D01*
X93924081Y-126224081D01*
X94097157Y-126013188D01*
X94104206Y-126000000D01*
X99015199Y-126000000D01*
X101206201Y-128191003D01*
X101229999Y-128220001D01*
X101258997Y-128243799D01*
X101345723Y-128314974D01*
X101477753Y-128385546D01*
X101621014Y-128429003D01*
X101732667Y-128440000D01*
X101732676Y-128440000D01*
X101769999Y-128443676D01*
X101807322Y-128440000D01*
X106497659Y-128440000D01*
X106584880Y-128570535D01*
X106779465Y-128765120D01*
X107008273Y-128918005D01*
X107085515Y-128950000D01*
X107008273Y-128981995D01*
X106779465Y-129134880D01*
X106584880Y-129329465D01*
X106497659Y-129460000D01*
X94091567Y-129460000D01*
X93924081Y-129255919D01*
X93713188Y-129082843D01*
X93472581Y-128954236D01*
X93211507Y-128875040D01*
X93008037Y-128855000D01*
X91371963Y-128855000D01*
X91168493Y-128875040D01*
X90907419Y-128954236D01*
X90666812Y-129082843D01*
X90455919Y-129255919D01*
X90282843Y-129466812D01*
X90154236Y-129707419D01*
X90075040Y-129968493D01*
X90048299Y-130240000D01*
X90075040Y-130511507D01*
X90154236Y-130772581D01*
X90282843Y-131013188D01*
X90455919Y-131224081D01*
X90666812Y-131397157D01*
X90907419Y-131525764D01*
X91168493Y-131604960D01*
X91371963Y-131625000D01*
X93008037Y-131625000D01*
X93211507Y-131604960D01*
X93472581Y-131525764D01*
X93713188Y-131397157D01*
X93924081Y-131224081D01*
X94097157Y-131013188D01*
X94114896Y-130980000D01*
X106497659Y-130980000D01*
X106584880Y-131110535D01*
X106779465Y-131305120D01*
X107008273Y-131458005D01*
X107079943Y-131487692D01*
X107066977Y-131492364D01*
X106951020Y-131554344D01*
X106884040Y-131794435D01*
X107670000Y-132580395D01*
X108455960Y-131794435D01*
X108388980Y-131554344D01*
X108253240Y-131490515D01*
X108331727Y-131458005D01*
X108560535Y-131305120D01*
X108755120Y-131110535D01*
X108908005Y-130881727D01*
X109013314Y-130627490D01*
X109067000Y-130357592D01*
X109067000Y-130082408D01*
X109013314Y-129812510D01*
X108908005Y-129558273D01*
X108755120Y-129329465D01*
X108560535Y-129134880D01*
X108331727Y-128981995D01*
X108254485Y-128950000D01*
X108331727Y-128918005D01*
X108560535Y-128765120D01*
X108755120Y-128570535D01*
X108908005Y-128341727D01*
X109013314Y-128087490D01*
X109067000Y-127817592D01*
X109067000Y-127542408D01*
X109013314Y-127272510D01*
X108908005Y-127018273D01*
X108755120Y-126789465D01*
X108560535Y-126594880D01*
X108331727Y-126441995D01*
X108254485Y-126410000D01*
X108331727Y-126378005D01*
X108560535Y-126225120D01*
X108755120Y-126030535D01*
X108908005Y-125801727D01*
X109013314Y-125547490D01*
X109067000Y-125277592D01*
X109067000Y-125002408D01*
X109013314Y-124732510D01*
X108908005Y-124478273D01*
X108755120Y-124249465D01*
X108560535Y-124054880D01*
X108331727Y-123901995D01*
X108254485Y-123870000D01*
X108331727Y-123838005D01*
X108560535Y-123685120D01*
X108755120Y-123490535D01*
X108908005Y-123261727D01*
X109013314Y-123007490D01*
X109067000Y-122737592D01*
X109067000Y-122462408D01*
X109013314Y-122192510D01*
X108908005Y-121938273D01*
X108755120Y-121709465D01*
X108560535Y-121514880D01*
X108331727Y-121361995D01*
X108254485Y-121330000D01*
X108331727Y-121298005D01*
X108560535Y-121145120D01*
X108755120Y-120950535D01*
X108908005Y-120721727D01*
X109013314Y-120467490D01*
X109067000Y-120197592D01*
X109067000Y-119922408D01*
X109013314Y-119652510D01*
X108908005Y-119398273D01*
X108755120Y-119169465D01*
X108560535Y-118974880D01*
X108331727Y-118821995D01*
X108254485Y-118790000D01*
X108331727Y-118758005D01*
X108560535Y-118605120D01*
X108755120Y-118410535D01*
X108908005Y-118181727D01*
X109013314Y-117927490D01*
X109067000Y-117657592D01*
X109067000Y-117382408D01*
X109013314Y-117112510D01*
X108908005Y-116858273D01*
X108755120Y-116629465D01*
X108560535Y-116434880D01*
X108331727Y-116281995D01*
X108254485Y-116250000D01*
X108331727Y-116218005D01*
X108560535Y-116065120D01*
X108755120Y-115870535D01*
X108908005Y-115641727D01*
X109013314Y-115387490D01*
X109067000Y-115117592D01*
X109067000Y-114842408D01*
X109013314Y-114572510D01*
X108908005Y-114318273D01*
X108755120Y-114089465D01*
X108560535Y-113894880D01*
X108331727Y-113741995D01*
X108254485Y-113710000D01*
X108331727Y-113678005D01*
X108560535Y-113525120D01*
X108755120Y-113330535D01*
X108908005Y-113101727D01*
X109013314Y-112847490D01*
X109067000Y-112577592D01*
X109067000Y-112302408D01*
X109013314Y-112032510D01*
X108908005Y-111778273D01*
X108755120Y-111549465D01*
X108560535Y-111354880D01*
X108331727Y-111201995D01*
X108254485Y-111170000D01*
X108331727Y-111138005D01*
X108560535Y-110985120D01*
X108755120Y-110790535D01*
X108908005Y-110561727D01*
X109013314Y-110307490D01*
X109067000Y-110037592D01*
X109067000Y-109762408D01*
X109013314Y-109492510D01*
X108908005Y-109238273D01*
X108755120Y-109009465D01*
X108560535Y-108814880D01*
X108430000Y-108727659D01*
X108430000Y-95667322D01*
X108433676Y-95629999D01*
X108430000Y-95592676D01*
X108430000Y-95592667D01*
X108419003Y-95481014D01*
X108375546Y-95337753D01*
X108351222Y-95292247D01*
X108304974Y-95205723D01*
X108233799Y-95118997D01*
X108210001Y-95089999D01*
X108181003Y-95066201D01*
X102843804Y-89729003D01*
X102820001Y-89699999D01*
X102704276Y-89605026D01*
X102572247Y-89534454D01*
X102428986Y-89490997D01*
X102317333Y-89480000D01*
X102317322Y-89480000D01*
X102280000Y-89476324D01*
X102242678Y-89480000D01*
X94104206Y-89480000D01*
X94097157Y-89466812D01*
X93924081Y-89255919D01*
X93713188Y-89082843D01*
X93472581Y-88954236D01*
X93211507Y-88875040D01*
X93008037Y-88855000D01*
X91371963Y-88855000D01*
X91168493Y-88875040D01*
X90907419Y-88954236D01*
X90666812Y-89082843D01*
X90455919Y-89255919D01*
X90282843Y-89466812D01*
X90154236Y-89707419D01*
X90075040Y-89968493D01*
X90048299Y-90240000D01*
X83660000Y-90240000D01*
X83660000Y-83660000D01*
X160340000Y-83660000D01*
X160340001Y-171340000D01*
%TA.AperFunction,Conductor*%
D16*
G36*
X160340001Y-171340000D02*
G01*
X83660000Y-171340000D01*
X83660000Y-160240000D01*
X90048299Y-160240000D01*
X90075040Y-160511507D01*
X90154236Y-160772581D01*
X90282843Y-161013188D01*
X90455919Y-161224081D01*
X90666812Y-161397157D01*
X90907419Y-161525764D01*
X91168493Y-161604960D01*
X91371963Y-161625000D01*
X91430001Y-161625000D01*
X91430000Y-163851928D01*
X90690000Y-163851928D01*
X90565518Y-163864188D01*
X90445820Y-163900498D01*
X90335506Y-163959463D01*
X90238815Y-164038815D01*
X90159463Y-164135506D01*
X90100498Y-164245820D01*
X90064188Y-164365518D01*
X90051928Y-164490000D01*
X90051928Y-165990000D01*
X90064188Y-166114482D01*
X90100498Y-166234180D01*
X90159463Y-166344494D01*
X90238815Y-166441185D01*
X90335506Y-166520537D01*
X90445820Y-166579502D01*
X90565518Y-166615812D01*
X90690000Y-166628072D01*
X93690000Y-166628072D01*
X93814482Y-166615812D01*
X93934180Y-166579502D01*
X94044494Y-166520537D01*
X94141185Y-166441185D01*
X94220537Y-166344494D01*
X94279502Y-166234180D01*
X94315812Y-166114482D01*
X94328072Y-165990000D01*
X94328072Y-164490000D01*
X94315812Y-164365518D01*
X94279502Y-164245820D01*
X94220537Y-164135506D01*
X94141185Y-164038815D01*
X94044494Y-163959463D01*
X93934180Y-163900498D01*
X93814482Y-163864188D01*
X93690000Y-163851928D01*
X92950000Y-163851928D01*
X92950000Y-161625000D01*
X93008037Y-161625000D01*
X93211507Y-161604960D01*
X93472581Y-161525764D01*
X93713188Y-161397157D01*
X93924081Y-161224081D01*
X94097157Y-161013188D01*
X94104206Y-161000000D01*
X94702678Y-161000000D01*
X94740000Y-161003676D01*
X94777322Y-161000000D01*
X94777333Y-161000000D01*
X94888986Y-160989003D01*
X95032247Y-160945546D01*
X95164276Y-160874974D01*
X95280001Y-160780001D01*
X95303804Y-160750997D01*
X108181003Y-147873799D01*
X108210001Y-147850001D01*
X108304974Y-147734276D01*
X108375546Y-147602247D01*
X108419003Y-147458986D01*
X108430000Y-147347333D01*
X108430000Y-147347324D01*
X108433676Y-147310001D01*
X108430000Y-147272678D01*
X108430000Y-146632341D01*
X108560535Y-146545120D01*
X108755120Y-146350535D01*
X108908005Y-146121727D01*
X109013314Y-145867490D01*
X109067000Y-145597592D01*
X109067000Y-145322408D01*
X109013314Y-145052510D01*
X108908005Y-144798273D01*
X108755120Y-144569465D01*
X108560535Y-144374880D01*
X108331727Y-144221995D01*
X108260057Y-144192308D01*
X108273023Y-144187636D01*
X108388980Y-144125656D01*
X108455960Y-143885565D01*
X107670000Y-143099605D01*
X106884040Y-143885565D01*
X106951020Y-144125656D01*
X107086760Y-144189485D01*
X107008273Y-144221995D01*
X106779465Y-144374880D01*
X106584880Y-144569465D01*
X106431995Y-144798273D01*
X106326686Y-145052510D01*
X106273000Y-145322408D01*
X106273000Y-145597592D01*
X106326686Y-145867490D01*
X106431995Y-146121727D01*
X106584880Y-146350535D01*
X106779465Y-146545120D01*
X106910001Y-146632341D01*
X106910001Y-146995197D01*
X94425199Y-159480000D01*
X94104206Y-159480000D01*
X94097157Y-159466812D01*
X93924081Y-159255919D01*
X93713188Y-159082843D01*
X93472581Y-158954236D01*
X93211507Y-158875040D01*
X93008037Y-158855000D01*
X91371963Y-158855000D01*
X91168493Y-158875040D01*
X90907419Y-158954236D01*
X90666812Y-159082843D01*
X90455919Y-159255919D01*
X90282843Y-159466812D01*
X90154236Y-159707419D01*
X90075040Y-159968493D01*
X90048299Y-160240000D01*
X83660000Y-160240000D01*
X83660000Y-155581185D01*
X90097682Y-155581185D01*
X90111827Y-155652684D01*
X90217858Y-155903868D01*
X90370855Y-156129540D01*
X90564939Y-156321028D01*
X90792651Y-156470972D01*
X91045240Y-156573611D01*
X91313000Y-156625000D01*
X92063000Y-156625000D01*
X92063000Y-155367000D01*
X92317000Y-155367000D01*
X92317000Y-156625000D01*
X93067000Y-156625000D01*
X93334760Y-156573611D01*
X93587349Y-156470972D01*
X93815061Y-156321028D01*
X94009145Y-156129540D01*
X94162142Y-155903868D01*
X94268173Y-155652684D01*
X94282318Y-155581185D01*
X94159656Y-155367000D01*
X92317000Y-155367000D01*
X92063000Y-155367000D01*
X90220344Y-155367000D01*
X90097682Y-155581185D01*
X83660000Y-155581185D01*
X83660000Y-154898815D01*
X90097682Y-154898815D01*
X90220344Y-155113000D01*
X92063000Y-155113000D01*
X92063000Y-153855000D01*
X92317000Y-153855000D01*
X92317000Y-155113000D01*
X94159656Y-155113000D01*
X94282318Y-154898815D01*
X94268173Y-154827316D01*
X94162142Y-154576132D01*
X94009145Y-154350460D01*
X93815061Y-154158972D01*
X93587349Y-154009028D01*
X93334760Y-153906389D01*
X93067000Y-153855000D01*
X92317000Y-153855000D01*
X92063000Y-153855000D01*
X91313000Y-153855000D01*
X91045240Y-153906389D01*
X90792651Y-154009028D01*
X90564939Y-154158972D01*
X90370855Y-154350460D01*
X90217858Y-154576132D01*
X90111827Y-154827316D01*
X90097682Y-154898815D01*
X83660000Y-154898815D01*
X83660000Y-140240000D01*
X90048299Y-140240000D01*
X90075040Y-140511507D01*
X90154236Y-140772581D01*
X90282843Y-141013188D01*
X90455919Y-141224081D01*
X90666812Y-141397157D01*
X90907419Y-141525764D01*
X91168493Y-141604960D01*
X91371963Y-141625000D01*
X93008037Y-141625000D01*
X93211507Y-141604960D01*
X93472581Y-141525764D01*
X93713188Y-141397157D01*
X93924081Y-141224081D01*
X94097157Y-141013188D01*
X94225764Y-140772581D01*
X94304960Y-140511507D01*
X94331701Y-140240000D01*
X94304960Y-139968493D01*
X94225764Y-139707419D01*
X94097157Y-139466812D01*
X94070487Y-139434314D01*
X97444802Y-136060000D01*
X106497659Y-136060000D01*
X106584880Y-136190535D01*
X106779465Y-136385120D01*
X107008273Y-136538005D01*
X107085515Y-136570000D01*
X107008273Y-136601995D01*
X106779465Y-136754880D01*
X106584880Y-136949465D01*
X106497659Y-137080000D01*
X102127322Y-137080000D01*
X102089999Y-137076324D01*
X102052676Y-137080000D01*
X102052667Y-137080000D01*
X101941014Y-137090997D01*
X101797753Y-137134454D01*
X101665724Y-137205026D01*
X101549999Y-137299999D01*
X101526201Y-137328997D01*
X94375199Y-144480000D01*
X94104206Y-144480000D01*
X94097157Y-144466812D01*
X93924081Y-144255919D01*
X93713188Y-144082843D01*
X93472581Y-143954236D01*
X93211507Y-143875040D01*
X93008037Y-143855000D01*
X91371963Y-143855000D01*
X91168493Y-143875040D01*
X90907419Y-143954236D01*
X90666812Y-144082843D01*
X90455919Y-144255919D01*
X90282843Y-144466812D01*
X90154236Y-144707419D01*
X90075040Y-144968493D01*
X90048299Y-145240000D01*
X90075040Y-145511507D01*
X90154236Y-145772581D01*
X90282843Y-146013188D01*
X90455919Y-146224081D01*
X90666812Y-146397157D01*
X90907419Y-146525764D01*
X91168493Y-146604960D01*
X91371963Y-146625000D01*
X93008037Y-146625000D01*
X93211507Y-146604960D01*
X93472581Y-146525764D01*
X93713188Y-146397157D01*
X93924081Y-146224081D01*
X94097157Y-146013188D01*
X94104206Y-146000000D01*
X94652678Y-146000000D01*
X94690000Y-146003676D01*
X94727322Y-146000000D01*
X94727333Y-146000000D01*
X94838986Y-145989003D01*
X94982247Y-145945546D01*
X95114276Y-145874974D01*
X95230001Y-145780001D01*
X95253804Y-145750997D01*
X102404802Y-138600000D01*
X106497659Y-138600000D01*
X106584880Y-138730535D01*
X106779465Y-138925120D01*
X107008273Y-139078005D01*
X107085515Y-139110000D01*
X107008273Y-139141995D01*
X106779465Y-139294880D01*
X106584880Y-139489465D01*
X106497659Y-139620000D01*
X104407325Y-139620000D01*
X104370000Y-139616324D01*
X104332675Y-139620000D01*
X104332667Y-139620000D01*
X104221014Y-139630997D01*
X104077753Y-139674454D01*
X103945724Y-139745026D01*
X103829999Y-139839999D01*
X103806201Y-139868997D01*
X94195199Y-149480000D01*
X94104206Y-149480000D01*
X94097157Y-149466812D01*
X93924081Y-149255919D01*
X93713188Y-149082843D01*
X93472581Y-148954236D01*
X93211507Y-148875040D01*
X93008037Y-148855000D01*
X91371963Y-148855000D01*
X91168493Y-148875040D01*
X90907419Y-148954236D01*
X90666812Y-149082843D01*
X90455919Y-149255919D01*
X90282843Y-149466812D01*
X90154236Y-149707419D01*
X90075040Y-149968493D01*
X90048299Y-150240000D01*
X90075040Y-150511507D01*
X90154236Y-150772581D01*
X90282843Y-151013188D01*
X90455919Y-151224081D01*
X90666812Y-151397157D01*
X90907419Y-151525764D01*
X91168493Y-151604960D01*
X91371963Y-151625000D01*
X93008037Y-151625000D01*
X93211507Y-151604960D01*
X93472581Y-151525764D01*
X93713188Y-151397157D01*
X93924081Y-151224081D01*
X94097157Y-151013188D01*
X94104206Y-151000000D01*
X94472678Y-151000000D01*
X94510000Y-151003676D01*
X94547322Y-151000000D01*
X94547333Y-151000000D01*
X94658986Y-150989003D01*
X94802247Y-150945546D01*
X94934276Y-150874974D01*
X95050001Y-150780001D01*
X95073804Y-150750997D01*
X102832784Y-142992017D01*
X106268090Y-142992017D01*
X106309078Y-143264133D01*
X106402364Y-143523023D01*
X106464344Y-143638980D01*
X106704435Y-143705960D01*
X107490395Y-142920000D01*
X107849605Y-142920000D01*
X108635565Y-143705960D01*
X108875656Y-143638980D01*
X108992756Y-143389952D01*
X109059023Y-143122865D01*
X109065157Y-142992017D01*
X134208090Y-142992017D01*
X134249078Y-143264133D01*
X134342364Y-143523023D01*
X134404344Y-143638980D01*
X134644435Y-143705960D01*
X135430395Y-142920000D01*
X135789605Y-142920000D01*
X136575565Y-143705960D01*
X136815656Y-143638980D01*
X136932756Y-143389952D01*
X136999023Y-143122865D01*
X137011910Y-142847983D01*
X136970922Y-142575867D01*
X136877636Y-142316977D01*
X136815656Y-142201020D01*
X136575565Y-142134040D01*
X135789605Y-142920000D01*
X135430395Y-142920000D01*
X134644435Y-142134040D01*
X134404344Y-142201020D01*
X134287244Y-142450048D01*
X134220977Y-142717135D01*
X134208090Y-142992017D01*
X109065157Y-142992017D01*
X109071910Y-142847983D01*
X109030922Y-142575867D01*
X108937636Y-142316977D01*
X108875656Y-142201020D01*
X108635565Y-142134040D01*
X107849605Y-142920000D01*
X107490395Y-142920000D01*
X106704435Y-142134040D01*
X106464344Y-142201020D01*
X106347244Y-142450048D01*
X106280977Y-142717135D01*
X106268090Y-142992017D01*
X102832784Y-142992017D01*
X104684802Y-141140000D01*
X106497659Y-141140000D01*
X106584880Y-141270535D01*
X106779465Y-141465120D01*
X107008273Y-141618005D01*
X107079943Y-141647692D01*
X107066977Y-141652364D01*
X106951020Y-141714344D01*
X106884040Y-141954435D01*
X107670000Y-142740395D01*
X108455960Y-141954435D01*
X108388980Y-141714344D01*
X108253240Y-141650515D01*
X108331727Y-141618005D01*
X108560535Y-141465120D01*
X108755120Y-141270535D01*
X108908005Y-141041727D01*
X109013314Y-140787490D01*
X109067000Y-140517592D01*
X109067000Y-140242408D01*
X109013314Y-139972510D01*
X108908005Y-139718273D01*
X108755120Y-139489465D01*
X108560535Y-139294880D01*
X108331727Y-139141995D01*
X108254485Y-139110000D01*
X108331727Y-139078005D01*
X108560535Y-138925120D01*
X108755120Y-138730535D01*
X108908005Y-138501727D01*
X109013314Y-138247490D01*
X109067000Y-137977592D01*
X109067000Y-137702408D01*
X109028198Y-137507339D01*
X109085666Y-137512999D01*
X109085676Y-137512999D01*
X109122999Y-137516675D01*
X109160322Y-137512999D01*
X122009668Y-137512999D01*
X122047001Y-137516676D01*
X122084334Y-137512999D01*
X134250676Y-137512999D01*
X134213000Y-137702408D01*
X134213000Y-137977592D01*
X134266686Y-138247490D01*
X134371995Y-138501727D01*
X134524880Y-138730535D01*
X134719465Y-138925120D01*
X134948273Y-139078005D01*
X135025515Y-139110000D01*
X134948273Y-139141995D01*
X134719465Y-139294880D01*
X134524880Y-139489465D01*
X134371995Y-139718273D01*
X134266686Y-139972510D01*
X134213000Y-140242408D01*
X134213000Y-140517592D01*
X134266686Y-140787490D01*
X134371995Y-141041727D01*
X134524880Y-141270535D01*
X134719465Y-141465120D01*
X134948273Y-141618005D01*
X135019943Y-141647692D01*
X135006977Y-141652364D01*
X134891020Y-141714344D01*
X134824040Y-141954435D01*
X135610000Y-142740395D01*
X136395960Y-141954435D01*
X136328980Y-141714344D01*
X136193240Y-141650515D01*
X136271727Y-141618005D01*
X136500535Y-141465120D01*
X136695120Y-141270535D01*
X136782341Y-141140000D01*
X138765199Y-141140000D01*
X148136205Y-150511008D01*
X148159999Y-150540001D01*
X148188992Y-150563795D01*
X148188996Y-150563799D01*
X148218543Y-150588047D01*
X148275724Y-150634974D01*
X148407753Y-150705546D01*
X148551014Y-150749003D01*
X148662667Y-150760000D01*
X148662676Y-150760000D01*
X148699999Y-150763676D01*
X148737322Y-150760000D01*
X150085794Y-150760000D01*
X150092843Y-150773188D01*
X150265919Y-150984081D01*
X150476812Y-151157157D01*
X150717419Y-151285764D01*
X150978493Y-151364960D01*
X151181963Y-151385000D01*
X152818037Y-151385000D01*
X153021507Y-151364960D01*
X153282581Y-151285764D01*
X153523188Y-151157157D01*
X153734081Y-150984081D01*
X153907157Y-150773188D01*
X154035764Y-150532581D01*
X154114960Y-150271507D01*
X154141701Y-150000000D01*
X154114960Y-149728493D01*
X154035764Y-149467419D01*
X153907157Y-149226812D01*
X153734081Y-149015919D01*
X153523188Y-148842843D01*
X153282581Y-148714236D01*
X153021507Y-148635040D01*
X152818037Y-148615000D01*
X151181963Y-148615000D01*
X150978493Y-148635040D01*
X150717419Y-148714236D01*
X150476812Y-148842843D01*
X150265919Y-149015919D01*
X150092843Y-149226812D01*
X150085794Y-149240000D01*
X149014803Y-149240000D01*
X139643804Y-139869003D01*
X139620001Y-139839999D01*
X139504276Y-139745026D01*
X139372247Y-139674454D01*
X139228986Y-139630997D01*
X139117333Y-139620000D01*
X139117322Y-139620000D01*
X139080000Y-139616324D01*
X139042678Y-139620000D01*
X136782341Y-139620000D01*
X136695120Y-139489465D01*
X136500535Y-139294880D01*
X136271727Y-139141995D01*
X136194485Y-139110000D01*
X136271727Y-139078005D01*
X136500535Y-138925120D01*
X136695120Y-138730535D01*
X136782341Y-138600000D01*
X139075199Y-138600000D01*
X145986201Y-145511003D01*
X146009999Y-145540001D01*
X146038997Y-145563799D01*
X146125723Y-145634974D01*
X146180543Y-145664276D01*
X146257753Y-145705546D01*
X146401014Y-145749003D01*
X146512667Y-145760000D01*
X146512676Y-145760000D01*
X146549999Y-145763676D01*
X146587322Y-145760000D01*
X150085794Y-145760000D01*
X150092843Y-145773188D01*
X150265919Y-145984081D01*
X150476812Y-146157157D01*
X150717419Y-146285764D01*
X150978493Y-146364960D01*
X151181963Y-146385000D01*
X152818037Y-146385000D01*
X153021507Y-146364960D01*
X153282581Y-146285764D01*
X153523188Y-146157157D01*
X153734081Y-145984081D01*
X153907157Y-145773188D01*
X153928587Y-145733096D01*
X154240009Y-146044518D01*
X154240010Y-163955481D01*
X153926573Y-164268918D01*
X153819145Y-164110460D01*
X153625061Y-163918972D01*
X153397349Y-163769028D01*
X153144760Y-163666389D01*
X152877000Y-163615000D01*
X152127000Y-163615000D01*
X152127000Y-164873000D01*
X152147000Y-164873000D01*
X152147000Y-165127000D01*
X152127000Y-165127000D01*
X152127000Y-165147000D01*
X151873000Y-165147000D01*
X151873000Y-165127000D01*
X151853000Y-165127000D01*
X151853000Y-164873000D01*
X151873000Y-164873000D01*
X151873000Y-163615000D01*
X151123000Y-163615000D01*
X150855240Y-163666389D01*
X150602651Y-163769028D01*
X150374939Y-163918972D01*
X150180855Y-164110460D01*
X150073427Y-164268918D01*
X136370000Y-150565492D01*
X136370000Y-146632341D01*
X136500535Y-146545120D01*
X136695120Y-146350535D01*
X136782341Y-146220000D01*
X138335199Y-146220000D01*
X150803363Y-158688165D01*
X150717419Y-158714236D01*
X150476812Y-158842843D01*
X150265919Y-159015919D01*
X150092843Y-159226812D01*
X149964236Y-159467419D01*
X149885040Y-159728493D01*
X149858299Y-160000000D01*
X149885040Y-160271507D01*
X149964236Y-160532581D01*
X150092843Y-160773188D01*
X150265919Y-160984081D01*
X150476812Y-161157157D01*
X150717419Y-161285764D01*
X150978493Y-161364960D01*
X151181963Y-161385000D01*
X152818037Y-161385000D01*
X153021507Y-161364960D01*
X153282581Y-161285764D01*
X153523188Y-161157157D01*
X153734081Y-160984081D01*
X153907157Y-160773188D01*
X154035764Y-160532581D01*
X154114960Y-160271507D01*
X154141701Y-160000000D01*
X154114960Y-159728493D01*
X154035764Y-159467419D01*
X153907157Y-159226812D01*
X153734081Y-159015919D01*
X153523188Y-158842843D01*
X153282581Y-158714236D01*
X153021507Y-158635040D01*
X152818037Y-158615000D01*
X152735045Y-158615000D01*
X152705546Y-158517753D01*
X152634974Y-158385723D01*
X152563799Y-158298997D01*
X152540001Y-158269999D01*
X152511003Y-158246201D01*
X149605987Y-155341185D01*
X149907682Y-155341185D01*
X149921827Y-155412684D01*
X150027858Y-155663868D01*
X150180855Y-155889540D01*
X150374939Y-156081028D01*
X150602651Y-156230972D01*
X150855240Y-156333611D01*
X151123000Y-156385000D01*
X151873000Y-156385000D01*
X151873000Y-155127000D01*
X152127000Y-155127000D01*
X152127000Y-156385000D01*
X152877000Y-156385000D01*
X153144760Y-156333611D01*
X153397349Y-156230972D01*
X153625061Y-156081028D01*
X153819145Y-155889540D01*
X153972142Y-155663868D01*
X154078173Y-155412684D01*
X154092318Y-155341185D01*
X153969656Y-155127000D01*
X152127000Y-155127000D01*
X151873000Y-155127000D01*
X150030344Y-155127000D01*
X149907682Y-155341185D01*
X149605987Y-155341185D01*
X148923617Y-154658815D01*
X149907682Y-154658815D01*
X150030344Y-154873000D01*
X151873000Y-154873000D01*
X151873000Y-153615000D01*
X152127000Y-153615000D01*
X152127000Y-154873000D01*
X153969656Y-154873000D01*
X154092318Y-154658815D01*
X154078173Y-154587316D01*
X153972142Y-154336132D01*
X153819145Y-154110460D01*
X153625061Y-153918972D01*
X153397349Y-153769028D01*
X153144760Y-153666389D01*
X152877000Y-153615000D01*
X152127000Y-153615000D01*
X151873000Y-153615000D01*
X151123000Y-153615000D01*
X150855240Y-153666389D01*
X150602651Y-153769028D01*
X150374939Y-153918972D01*
X150180855Y-154110460D01*
X150027858Y-154336132D01*
X149921827Y-154587316D01*
X149907682Y-154658815D01*
X148923617Y-154658815D01*
X139213804Y-144949003D01*
X139190001Y-144919999D01*
X139074276Y-144825026D01*
X138942247Y-144754454D01*
X138798986Y-144710997D01*
X138687333Y-144700000D01*
X138687322Y-144700000D01*
X138650000Y-144696324D01*
X138612678Y-144700000D01*
X136782341Y-144700000D01*
X136695120Y-144569465D01*
X136500535Y-144374880D01*
X136271727Y-144221995D01*
X136200057Y-144192308D01*
X136213023Y-144187636D01*
X136328980Y-144125656D01*
X136395960Y-143885565D01*
X135610000Y-143099605D01*
X134824040Y-143885565D01*
X134891020Y-144125656D01*
X135026760Y-144189485D01*
X134948273Y-144221995D01*
X134719465Y-144374880D01*
X134524880Y-144569465D01*
X134371995Y-144798273D01*
X134266686Y-145052510D01*
X134213000Y-145322408D01*
X134213000Y-145597592D01*
X134266686Y-145867490D01*
X134371995Y-146121727D01*
X134524880Y-146350535D01*
X134719465Y-146545120D01*
X134850001Y-146632341D01*
X134850000Y-150842970D01*
X134846324Y-150880293D01*
X134850000Y-150917615D01*
X134850000Y-150917625D01*
X134860997Y-151029278D01*
X134899788Y-151157157D01*
X134904454Y-151172539D01*
X134975026Y-151304569D01*
X135014871Y-151353119D01*
X135069999Y-151420294D01*
X135099003Y-151444097D01*
X150240918Y-166586013D01*
X150264716Y-166615011D01*
X150380441Y-166709984D01*
X150512470Y-166780556D01*
X150655731Y-166824013D01*
X150767384Y-166835010D01*
X150767394Y-166835010D01*
X150804717Y-166838686D01*
X150842040Y-166835010D01*
X153157961Y-166835010D01*
X153195283Y-166838686D01*
X153232605Y-166835010D01*
X153232616Y-166835010D01*
X153344269Y-166824013D01*
X153487530Y-166780556D01*
X153619559Y-166709984D01*
X153735284Y-166615011D01*
X153759087Y-166586007D01*
X155511012Y-164834083D01*
X155540010Y-164810285D01*
X155566341Y-164778201D01*
X155634983Y-164694561D01*
X155705555Y-164562531D01*
X155749012Y-164419270D01*
X155760009Y-164307617D01*
X155760009Y-164307607D01*
X155763685Y-164270284D01*
X155760009Y-164232962D01*
X155760009Y-145767038D01*
X155763685Y-145729716D01*
X155760009Y-145692393D01*
X155760009Y-145692383D01*
X155749012Y-145580730D01*
X155705555Y-145437469D01*
X155679640Y-145388986D01*
X155634983Y-145305439D01*
X155563808Y-145218713D01*
X155540010Y-145189715D01*
X155511013Y-145165918D01*
X153759087Y-143413993D01*
X153735284Y-143384989D01*
X153619559Y-143290016D01*
X153487530Y-143219444D01*
X153344269Y-143175987D01*
X153232616Y-143164990D01*
X153232605Y-143164990D01*
X153195283Y-143161314D01*
X153157961Y-143164990D01*
X146426202Y-143164990D01*
X139503213Y-136242002D01*
X139479410Y-136212998D01*
X139363685Y-136118025D01*
X139255129Y-136060000D01*
X139575199Y-136060000D01*
X144026201Y-140511003D01*
X144049999Y-140540001D01*
X144165724Y-140634974D01*
X144297753Y-140705546D01*
X144441014Y-140749003D01*
X144552667Y-140760000D01*
X144552675Y-140760000D01*
X144590000Y-140763676D01*
X144627325Y-140760000D01*
X150085794Y-140760000D01*
X150092843Y-140773188D01*
X150265919Y-140984081D01*
X150476812Y-141157157D01*
X150717419Y-141285764D01*
X150978493Y-141364960D01*
X151181963Y-141385000D01*
X152818037Y-141385000D01*
X153021507Y-141364960D01*
X153282581Y-141285764D01*
X153523188Y-141157157D01*
X153734081Y-140984081D01*
X153907157Y-140773188D01*
X154035764Y-140532581D01*
X154114960Y-140271507D01*
X154141701Y-140000000D01*
X154114960Y-139728493D01*
X154035764Y-139467419D01*
X153907157Y-139226812D01*
X153734081Y-139015919D01*
X153523188Y-138842843D01*
X153282581Y-138714236D01*
X153021507Y-138635040D01*
X152818037Y-138615000D01*
X151181963Y-138615000D01*
X150978493Y-138635040D01*
X150717419Y-138714236D01*
X150476812Y-138842843D01*
X150265919Y-139015919D01*
X150092843Y-139226812D01*
X150085794Y-139240000D01*
X144904802Y-139240000D01*
X140453804Y-134789003D01*
X140430001Y-134759999D01*
X140314276Y-134665026D01*
X140182247Y-134594454D01*
X140038986Y-134550997D01*
X139927333Y-134540000D01*
X139927322Y-134540000D01*
X139890000Y-134536324D01*
X139852678Y-134540000D01*
X136782341Y-134540000D01*
X136695120Y-134409465D01*
X136500535Y-134214880D01*
X136271727Y-134061995D01*
X136194485Y-134030000D01*
X136271727Y-133998005D01*
X136500535Y-133845120D01*
X136695120Y-133650535D01*
X136782341Y-133520000D01*
X140975199Y-133520000D01*
X142966205Y-135511008D01*
X142989999Y-135540001D01*
X143018992Y-135563795D01*
X143018996Y-135563799D01*
X143089685Y-135621811D01*
X143105724Y-135634974D01*
X143237753Y-135705546D01*
X143381014Y-135749003D01*
X143492667Y-135760000D01*
X143492676Y-135760000D01*
X143529999Y-135763676D01*
X143567322Y-135760000D01*
X150085794Y-135760000D01*
X150092843Y-135773188D01*
X150265919Y-135984081D01*
X150476812Y-136157157D01*
X150717419Y-136285764D01*
X150978493Y-136364960D01*
X151181963Y-136385000D01*
X152818037Y-136385000D01*
X153021507Y-136364960D01*
X153282581Y-136285764D01*
X153523188Y-136157157D01*
X153734081Y-135984081D01*
X153907157Y-135773188D01*
X154035764Y-135532581D01*
X154114960Y-135271507D01*
X154141701Y-135000000D01*
X154114960Y-134728493D01*
X154035764Y-134467419D01*
X153907157Y-134226812D01*
X153734081Y-134015919D01*
X153523188Y-133842843D01*
X153282581Y-133714236D01*
X153021507Y-133635040D01*
X152818037Y-133615000D01*
X151181963Y-133615000D01*
X150978493Y-133635040D01*
X150717419Y-133714236D01*
X150476812Y-133842843D01*
X150265919Y-134015919D01*
X150092843Y-134226812D01*
X150085794Y-134240000D01*
X143844803Y-134240000D01*
X141853804Y-132249002D01*
X141830001Y-132219999D01*
X141714276Y-132125026D01*
X141582247Y-132054454D01*
X141438986Y-132010997D01*
X141327333Y-132000000D01*
X141327322Y-132000000D01*
X141290000Y-131996324D01*
X141252678Y-132000000D01*
X136782341Y-132000000D01*
X136695120Y-131869465D01*
X136500535Y-131674880D01*
X136271727Y-131521995D01*
X136194485Y-131490000D01*
X136271727Y-131458005D01*
X136500535Y-131305120D01*
X136695120Y-131110535D01*
X136848005Y-130881727D01*
X136898426Y-130760000D01*
X150085794Y-130760000D01*
X150092843Y-130773188D01*
X150265919Y-130984081D01*
X150476812Y-131157157D01*
X150717419Y-131285764D01*
X150978493Y-131364960D01*
X151181963Y-131385000D01*
X152818037Y-131385000D01*
X153021507Y-131364960D01*
X153282581Y-131285764D01*
X153523188Y-131157157D01*
X153734081Y-130984081D01*
X153907157Y-130773188D01*
X154035764Y-130532581D01*
X154114960Y-130271507D01*
X154141701Y-130000000D01*
X154114960Y-129728493D01*
X154035764Y-129467419D01*
X153907157Y-129226812D01*
X153734081Y-129015919D01*
X153523188Y-128842843D01*
X153282581Y-128714236D01*
X153021507Y-128635040D01*
X152818037Y-128615000D01*
X151181963Y-128615000D01*
X150978493Y-128635040D01*
X150717419Y-128714236D01*
X150476812Y-128842843D01*
X150265919Y-129015919D01*
X150092843Y-129226812D01*
X150085794Y-129240000D01*
X136605655Y-129240000D01*
X136500535Y-129134880D01*
X136271727Y-128981995D01*
X136194485Y-128950000D01*
X136271727Y-128918005D01*
X136500535Y-128765120D01*
X136695120Y-128570535D01*
X136782341Y-128440000D01*
X139782678Y-128440000D01*
X139820000Y-128443676D01*
X139857322Y-128440000D01*
X139857333Y-128440000D01*
X139968986Y-128429003D01*
X140112247Y-128385546D01*
X140244276Y-128314974D01*
X140360001Y-128220001D01*
X140383804Y-128190997D01*
X142814802Y-125760000D01*
X150085794Y-125760000D01*
X150092843Y-125773188D01*
X150265919Y-125984081D01*
X150476812Y-126157157D01*
X150717419Y-126285764D01*
X150978493Y-126364960D01*
X151181963Y-126385000D01*
X152818037Y-126385000D01*
X153021507Y-126364960D01*
X153282581Y-126285764D01*
X153523188Y-126157157D01*
X153734081Y-125984081D01*
X153907157Y-125773188D01*
X154035764Y-125532581D01*
X154114960Y-125271507D01*
X154141701Y-125000000D01*
X154114960Y-124728493D01*
X154035764Y-124467419D01*
X153907157Y-124226812D01*
X153734081Y-124015919D01*
X153523188Y-123842843D01*
X153282581Y-123714236D01*
X153021507Y-123635040D01*
X152818037Y-123615000D01*
X151181963Y-123615000D01*
X150978493Y-123635040D01*
X150717419Y-123714236D01*
X150476812Y-123842843D01*
X150265919Y-124015919D01*
X150092843Y-124226812D01*
X150085794Y-124240000D01*
X142537322Y-124240000D01*
X142499999Y-124236324D01*
X142462676Y-124240000D01*
X142462667Y-124240000D01*
X142351014Y-124250997D01*
X142207753Y-124294454D01*
X142075724Y-124365026D01*
X141959999Y-124459999D01*
X141936201Y-124488997D01*
X139505199Y-126920000D01*
X136782341Y-126920000D01*
X136695120Y-126789465D01*
X136500535Y-126594880D01*
X136271727Y-126441995D01*
X136194485Y-126410000D01*
X136271727Y-126378005D01*
X136500535Y-126225120D01*
X136695120Y-126030535D01*
X136782341Y-125900000D01*
X137992678Y-125900000D01*
X138030000Y-125903676D01*
X138067322Y-125900000D01*
X138067333Y-125900000D01*
X138178986Y-125889003D01*
X138322247Y-125845546D01*
X138454276Y-125774974D01*
X138570001Y-125680001D01*
X138593804Y-125650997D01*
X143484802Y-120760000D01*
X150085794Y-120760000D01*
X150092843Y-120773188D01*
X150265919Y-120984081D01*
X150476812Y-121157157D01*
X150717419Y-121285764D01*
X150978493Y-121364960D01*
X151181963Y-121385000D01*
X152818037Y-121385000D01*
X153021507Y-121364960D01*
X153282581Y-121285764D01*
X153523188Y-121157157D01*
X153734081Y-120984081D01*
X153907157Y-120773188D01*
X154035764Y-120532581D01*
X154114960Y-120271507D01*
X154141701Y-120000000D01*
X154114960Y-119728493D01*
X154035764Y-119467419D01*
X153907157Y-119226812D01*
X153734081Y-119015919D01*
X153523188Y-118842843D01*
X153282581Y-118714236D01*
X153021507Y-118635040D01*
X152818037Y-118615000D01*
X151181963Y-118615000D01*
X150978493Y-118635040D01*
X150717419Y-118714236D01*
X150476812Y-118842843D01*
X150265919Y-119015919D01*
X150092843Y-119226812D01*
X150085794Y-119240000D01*
X143207325Y-119240000D01*
X143170000Y-119236324D01*
X143132675Y-119240000D01*
X143132667Y-119240000D01*
X143021014Y-119250997D01*
X142877753Y-119294454D01*
X142745724Y-119365026D01*
X142629999Y-119459999D01*
X142606201Y-119488997D01*
X137715199Y-124380000D01*
X136782341Y-124380000D01*
X136695120Y-124249465D01*
X136500535Y-124054880D01*
X136271727Y-123901995D01*
X136194485Y-123870000D01*
X136271727Y-123838005D01*
X136500535Y-123685120D01*
X136695120Y-123490535D01*
X136782341Y-123360000D01*
X137392678Y-123360000D01*
X137430000Y-123363676D01*
X137467322Y-123360000D01*
X137467333Y-123360000D01*
X137578986Y-123349003D01*
X137722247Y-123305546D01*
X137854276Y-123234974D01*
X137970001Y-123140001D01*
X137993804Y-123110997D01*
X145344802Y-115760000D01*
X150085794Y-115760000D01*
X150092843Y-115773188D01*
X150265919Y-115984081D01*
X150476812Y-116157157D01*
X150717419Y-116285764D01*
X150978493Y-116364960D01*
X151181963Y-116385000D01*
X152818037Y-116385000D01*
X153021507Y-116364960D01*
X153282581Y-116285764D01*
X153523188Y-116157157D01*
X153734081Y-115984081D01*
X153907157Y-115773188D01*
X154035764Y-115532581D01*
X154114960Y-115271507D01*
X154141701Y-115000000D01*
X154114960Y-114728493D01*
X154035764Y-114467419D01*
X153907157Y-114226812D01*
X153734081Y-114015919D01*
X153523188Y-113842843D01*
X153282581Y-113714236D01*
X153021507Y-113635040D01*
X152818037Y-113615000D01*
X151181963Y-113615000D01*
X150978493Y-113635040D01*
X150717419Y-113714236D01*
X150476812Y-113842843D01*
X150265919Y-114015919D01*
X150092843Y-114226812D01*
X150085794Y-114240000D01*
X145067322Y-114240000D01*
X145029999Y-114236324D01*
X144992676Y-114240000D01*
X144992667Y-114240000D01*
X144881014Y-114250997D01*
X144737753Y-114294454D01*
X144605723Y-114365026D01*
X144522083Y-114433668D01*
X144489999Y-114459999D01*
X144466201Y-114488997D01*
X137115199Y-121840000D01*
X136782341Y-121840000D01*
X136695120Y-121709465D01*
X136500535Y-121514880D01*
X136271727Y-121361995D01*
X136194485Y-121330000D01*
X136271727Y-121298005D01*
X136500535Y-121145120D01*
X136695120Y-120950535D01*
X136848005Y-120721727D01*
X136953314Y-120467490D01*
X137007000Y-120197592D01*
X137007000Y-119922408D01*
X136976372Y-119768429D01*
X145984803Y-110760000D01*
X150085794Y-110760000D01*
X150092843Y-110773188D01*
X150265919Y-110984081D01*
X150476812Y-111157157D01*
X150717419Y-111285764D01*
X150978493Y-111364960D01*
X151181963Y-111385000D01*
X152818037Y-111385000D01*
X153021507Y-111364960D01*
X153282581Y-111285764D01*
X153523188Y-111157157D01*
X153734081Y-110984081D01*
X153907157Y-110773188D01*
X154035764Y-110532581D01*
X154114960Y-110271507D01*
X154141701Y-110000000D01*
X154114960Y-109728493D01*
X154035764Y-109467419D01*
X153907157Y-109226812D01*
X153734081Y-109015919D01*
X153523188Y-108842843D01*
X153282581Y-108714236D01*
X153021507Y-108635040D01*
X152818037Y-108615000D01*
X151181963Y-108615000D01*
X150978493Y-108635040D01*
X150717419Y-108714236D01*
X150476812Y-108842843D01*
X150265919Y-109015919D01*
X150092843Y-109226812D01*
X150085794Y-109240000D01*
X145707322Y-109240000D01*
X145669999Y-109236324D01*
X145632676Y-109240000D01*
X145632667Y-109240000D01*
X145521014Y-109250997D01*
X145377753Y-109294454D01*
X145245724Y-109365026D01*
X145245722Y-109365027D01*
X145245723Y-109365027D01*
X145158996Y-109436201D01*
X145158992Y-109436205D01*
X145129999Y-109459999D01*
X145106205Y-109488992D01*
X137007000Y-117588199D01*
X137007000Y-117382408D01*
X136976372Y-117228429D01*
X148444802Y-105760000D01*
X150085794Y-105760000D01*
X150092843Y-105773188D01*
X150265919Y-105984081D01*
X150476812Y-106157157D01*
X150717419Y-106285764D01*
X150978493Y-106364960D01*
X151181963Y-106385000D01*
X152818037Y-106385000D01*
X153021507Y-106364960D01*
X153282581Y-106285764D01*
X153523188Y-106157157D01*
X153734081Y-105984081D01*
X153907157Y-105773188D01*
X154035764Y-105532581D01*
X154114960Y-105271507D01*
X154141701Y-105000000D01*
X154114960Y-104728493D01*
X154035764Y-104467419D01*
X153907157Y-104226812D01*
X153734081Y-104015919D01*
X153523188Y-103842843D01*
X153282581Y-103714236D01*
X153021507Y-103635040D01*
X152818037Y-103615000D01*
X151181963Y-103615000D01*
X150978493Y-103635040D01*
X150717419Y-103714236D01*
X150476812Y-103842843D01*
X150265919Y-104015919D01*
X150092843Y-104226812D01*
X150085794Y-104240000D01*
X148167323Y-104240000D01*
X148130000Y-104236324D01*
X148092677Y-104240000D01*
X148092667Y-104240000D01*
X147981014Y-104250997D01*
X147837753Y-104294454D01*
X147705724Y-104365026D01*
X147589999Y-104459999D01*
X147566201Y-104488997D01*
X137007000Y-115048199D01*
X137007000Y-114842408D01*
X136976372Y-114688429D01*
X150496905Y-101167897D01*
X150717419Y-101285764D01*
X150978493Y-101364960D01*
X151181963Y-101385000D01*
X152818037Y-101385000D01*
X153021507Y-101364960D01*
X153282581Y-101285764D01*
X153523188Y-101157157D01*
X153734081Y-100984081D01*
X153907157Y-100773188D01*
X154035764Y-100532581D01*
X154114960Y-100271507D01*
X154141701Y-100000000D01*
X154114960Y-99728493D01*
X154035764Y-99467419D01*
X153907157Y-99226812D01*
X153734081Y-99015919D01*
X153523188Y-98842843D01*
X153282581Y-98714236D01*
X153021507Y-98635040D01*
X152818037Y-98615000D01*
X151181963Y-98615000D01*
X150978493Y-98635040D01*
X150717419Y-98714236D01*
X150476812Y-98842843D01*
X150265919Y-99015919D01*
X150092843Y-99226812D01*
X149964236Y-99467419D01*
X149913442Y-99634865D01*
X149875724Y-99655026D01*
X149759999Y-99749999D01*
X149736201Y-99778997D01*
X137007000Y-112508199D01*
X137007000Y-112302408D01*
X136976372Y-112148429D01*
X139581003Y-109543799D01*
X139610001Y-109520001D01*
X139659243Y-109460000D01*
X139704974Y-109404277D01*
X139775546Y-109272247D01*
X139785328Y-109240000D01*
X139819003Y-109128986D01*
X139830000Y-109017333D01*
X139830000Y-109017323D01*
X139833676Y-108980000D01*
X139830000Y-108942677D01*
X139830000Y-102494801D01*
X146564803Y-95760000D01*
X150085794Y-95760000D01*
X150092843Y-95773188D01*
X150265919Y-95984081D01*
X150476812Y-96157157D01*
X150717419Y-96285764D01*
X150978493Y-96364960D01*
X151181963Y-96385000D01*
X151317307Y-96385000D01*
X151365026Y-96474275D01*
X151459999Y-96590001D01*
X151575724Y-96684974D01*
X151707753Y-96755546D01*
X151851014Y-96799003D01*
X152000000Y-96813677D01*
X152148985Y-96799003D01*
X152292246Y-96755546D01*
X152424275Y-96684974D01*
X152540001Y-96590001D01*
X152634974Y-96474276D01*
X152682694Y-96385000D01*
X152818037Y-96385000D01*
X153021507Y-96364960D01*
X153282581Y-96285764D01*
X153523188Y-96157157D01*
X153734081Y-95984081D01*
X153907157Y-95773188D01*
X154035764Y-95532581D01*
X154114960Y-95271507D01*
X154141701Y-95000000D01*
X154114960Y-94728493D01*
X154035764Y-94467419D01*
X153907157Y-94226812D01*
X153734081Y-94015919D01*
X153523188Y-93842843D01*
X153282581Y-93714236D01*
X153021507Y-93635040D01*
X152818037Y-93615000D01*
X151181963Y-93615000D01*
X150978493Y-93635040D01*
X150717419Y-93714236D01*
X150476812Y-93842843D01*
X150265919Y-94015919D01*
X150092843Y-94226812D01*
X150085794Y-94240000D01*
X146287322Y-94240000D01*
X146249999Y-94236324D01*
X146212676Y-94240000D01*
X146212667Y-94240000D01*
X146101014Y-94250997D01*
X145957753Y-94294454D01*
X145825724Y-94365026D01*
X145825722Y-94365027D01*
X145825723Y-94365027D01*
X145738996Y-94436201D01*
X145738992Y-94436205D01*
X145709999Y-94459999D01*
X145686205Y-94488992D01*
X138559003Y-101616196D01*
X138529999Y-101639999D01*
X138505379Y-101669999D01*
X138435026Y-101755724D01*
X138401212Y-101818985D01*
X138364454Y-101887754D01*
X138320997Y-102031015D01*
X138310000Y-102142668D01*
X138310000Y-102142678D01*
X138306324Y-102180000D01*
X138310000Y-102217323D01*
X138310001Y-108665197D01*
X137007000Y-109968198D01*
X137007000Y-109762408D01*
X136953314Y-109492510D01*
X136848005Y-109238273D01*
X136695120Y-109009465D01*
X136500535Y-108814880D01*
X136370000Y-108727659D01*
X136370000Y-102444801D01*
X148054802Y-90760000D01*
X149862913Y-90760000D01*
X149874188Y-90874482D01*
X149910498Y-90994180D01*
X149969463Y-91104494D01*
X150048815Y-91201185D01*
X150145506Y-91280537D01*
X150255820Y-91339502D01*
X150375518Y-91375812D01*
X150500000Y-91388072D01*
X153500000Y-91388072D01*
X153624482Y-91375812D01*
X153744180Y-91339502D01*
X153854494Y-91280537D01*
X153951185Y-91201185D01*
X154030537Y-91104494D01*
X154089502Y-90994180D01*
X154125812Y-90874482D01*
X154138072Y-90750000D01*
X154138072Y-89250000D01*
X154125812Y-89125518D01*
X154089502Y-89005820D01*
X154030537Y-88895506D01*
X153951185Y-88798815D01*
X153854494Y-88719463D01*
X153744180Y-88660498D01*
X153624482Y-88624188D01*
X153500000Y-88611928D01*
X150500000Y-88611928D01*
X150375518Y-88624188D01*
X150255820Y-88660498D01*
X150145506Y-88719463D01*
X150048815Y-88798815D01*
X149969463Y-88895506D01*
X149910498Y-89005820D01*
X149874188Y-89125518D01*
X149862913Y-89240000D01*
X147777333Y-89240000D01*
X147740000Y-89236323D01*
X147702667Y-89240000D01*
X147591014Y-89250997D01*
X147447753Y-89294454D01*
X147315724Y-89365026D01*
X147199999Y-89459999D01*
X147176201Y-89488997D01*
X135098998Y-101566201D01*
X135070000Y-101589999D01*
X135046202Y-101618997D01*
X135046201Y-101618998D01*
X134975026Y-101705724D01*
X134904454Y-101837754D01*
X134860998Y-101981015D01*
X134846324Y-102130000D01*
X134850001Y-102167332D01*
X134850000Y-108727659D01*
X134719465Y-108814880D01*
X134524880Y-109009465D01*
X134371995Y-109238273D01*
X134266686Y-109492510D01*
X134213000Y-109762408D01*
X134213000Y-110037592D01*
X134266686Y-110307490D01*
X134371995Y-110561727D01*
X134524880Y-110790535D01*
X134719465Y-110985120D01*
X134948273Y-111138005D01*
X135025515Y-111170000D01*
X134948273Y-111201995D01*
X134719465Y-111354880D01*
X134524880Y-111549465D01*
X134371995Y-111778273D01*
X134266686Y-112032510D01*
X134213000Y-112302408D01*
X134213000Y-112577592D01*
X134266686Y-112847490D01*
X134371995Y-113101727D01*
X134524880Y-113330535D01*
X134719465Y-113525120D01*
X134948273Y-113678005D01*
X135025515Y-113710000D01*
X134948273Y-113741995D01*
X134719465Y-113894880D01*
X134524880Y-114089465D01*
X134371995Y-114318273D01*
X134266686Y-114572510D01*
X134213000Y-114842408D01*
X134213000Y-115117592D01*
X134266686Y-115387490D01*
X134371995Y-115641727D01*
X134524880Y-115870535D01*
X134719465Y-116065120D01*
X134948273Y-116218005D01*
X135025515Y-116250000D01*
X134948273Y-116281995D01*
X134719465Y-116434880D01*
X134524880Y-116629465D01*
X134371995Y-116858273D01*
X134266686Y-117112510D01*
X134213000Y-117382408D01*
X134213000Y-117657592D01*
X134266686Y-117927490D01*
X134371995Y-118181727D01*
X134524880Y-118410535D01*
X134719465Y-118605120D01*
X134948273Y-118758005D01*
X135025515Y-118790000D01*
X134948273Y-118821995D01*
X134719465Y-118974880D01*
X134524880Y-119169465D01*
X134371995Y-119398273D01*
X134266686Y-119652510D01*
X134213000Y-119922408D01*
X134213000Y-120197592D01*
X134266686Y-120467490D01*
X134371995Y-120721727D01*
X134524880Y-120950535D01*
X134719465Y-121145120D01*
X134948273Y-121298005D01*
X135025515Y-121330000D01*
X134948273Y-121361995D01*
X134719465Y-121514880D01*
X134524880Y-121709465D01*
X134437659Y-121840000D01*
X126137322Y-121840000D01*
X126099999Y-121836324D01*
X126062676Y-121840000D01*
X126062667Y-121840000D01*
X125951014Y-121850997D01*
X125807753Y-121894454D01*
X125675723Y-121965026D01*
X125592083Y-122033668D01*
X125559999Y-122059999D01*
X125536201Y-122088997D01*
X121536004Y-126089195D01*
X121507000Y-126112998D01*
X121470760Y-126157157D01*
X121412027Y-126228723D01*
X121383015Y-126283000D01*
X121341455Y-126360753D01*
X121297998Y-126504014D01*
X121287001Y-126615667D01*
X121287001Y-126615677D01*
X121283325Y-126652999D01*
X121287001Y-126690321D01*
X121287002Y-135992999D01*
X109437801Y-135992999D01*
X109036372Y-135591570D01*
X109067000Y-135437592D01*
X109067000Y-135162408D01*
X109013314Y-134892510D01*
X108908005Y-134638273D01*
X108755120Y-134409465D01*
X108560535Y-134214880D01*
X108331727Y-134061995D01*
X108260057Y-134032308D01*
X108273023Y-134027636D01*
X108388980Y-133965656D01*
X108455960Y-133725565D01*
X107670000Y-132939605D01*
X106884040Y-133725565D01*
X106951020Y-133965656D01*
X107086760Y-134029485D01*
X107008273Y-134061995D01*
X106779465Y-134214880D01*
X106584880Y-134409465D01*
X106497659Y-134540000D01*
X97167322Y-134540000D01*
X97130000Y-134536324D01*
X97092677Y-134540000D01*
X97092667Y-134540000D01*
X96981014Y-134550997D01*
X96837753Y-134594454D01*
X96705723Y-134665026D01*
X96653661Y-134707753D01*
X96589999Y-134759999D01*
X96566201Y-134788997D01*
X92500199Y-138855000D01*
X91371963Y-138855000D01*
X91168493Y-138875040D01*
X90907419Y-138954236D01*
X90666812Y-139082843D01*
X90455919Y-139255919D01*
X90282843Y-139466812D01*
X90154236Y-139707419D01*
X90075040Y-139968493D01*
X90048299Y-140240000D01*
X83660000Y-140240000D01*
X83660000Y-135581185D01*
X90097682Y-135581185D01*
X90111827Y-135652684D01*
X90217858Y-135903868D01*
X90370855Y-136129540D01*
X90564939Y-136321028D01*
X90792651Y-136470972D01*
X91045240Y-136573611D01*
X91313000Y-136625000D01*
X92063000Y-136625000D01*
X92063000Y-135367000D01*
X92317000Y-135367000D01*
X92317000Y-136625000D01*
X93067000Y-136625000D01*
X93334760Y-136573611D01*
X93587349Y-136470972D01*
X93815061Y-136321028D01*
X94009145Y-136129540D01*
X94162142Y-135903868D01*
X94268173Y-135652684D01*
X94282318Y-135581185D01*
X94159656Y-135367000D01*
X92317000Y-135367000D01*
X92063000Y-135367000D01*
X90220344Y-135367000D01*
X90097682Y-135581185D01*
X83660000Y-135581185D01*
X83660000Y-134898815D01*
X90097682Y-134898815D01*
X90220344Y-135113000D01*
X92063000Y-135113000D01*
X92063000Y-133855000D01*
X92317000Y-133855000D01*
X92317000Y-135113000D01*
X94159656Y-135113000D01*
X94282318Y-134898815D01*
X94268173Y-134827316D01*
X94162142Y-134576132D01*
X94009145Y-134350460D01*
X93815061Y-134158972D01*
X93587349Y-134009028D01*
X93334760Y-133906389D01*
X93067000Y-133855000D01*
X92317000Y-133855000D01*
X92063000Y-133855000D01*
X91313000Y-133855000D01*
X91045240Y-133906389D01*
X90792651Y-134009028D01*
X90564939Y-134158972D01*
X90370855Y-134350460D01*
X90217858Y-134576132D01*
X90111827Y-134827316D01*
X90097682Y-134898815D01*
X83660000Y-134898815D01*
X83660000Y-132832017D01*
X106268090Y-132832017D01*
X106309078Y-133104133D01*
X106402364Y-133363023D01*
X106464344Y-133478980D01*
X106704435Y-133545960D01*
X107490395Y-132760000D01*
X107849605Y-132760000D01*
X108635565Y-133545960D01*
X108875656Y-133478980D01*
X108992756Y-133229952D01*
X109059023Y-132962865D01*
X109071910Y-132687983D01*
X109030922Y-132415867D01*
X108937636Y-132156977D01*
X108875656Y-132041020D01*
X108635565Y-131974040D01*
X107849605Y-132760000D01*
X107490395Y-132760000D01*
X106704435Y-131974040D01*
X106464344Y-132041020D01*
X106347244Y-132290048D01*
X106280977Y-132557135D01*
X106268090Y-132832017D01*
X83660000Y-132832017D01*
X83660000Y-90240000D01*
X90048299Y-90240000D01*
X90075040Y-90511507D01*
X90154236Y-90772581D01*
X90282843Y-91013188D01*
X90455919Y-91224081D01*
X90666812Y-91397157D01*
X90907419Y-91525764D01*
X91168493Y-91604960D01*
X91371963Y-91625000D01*
X93008037Y-91625000D01*
X93211507Y-91604960D01*
X93472581Y-91525764D01*
X93713188Y-91397157D01*
X93924081Y-91224081D01*
X94097157Y-91013188D01*
X94104206Y-91000000D01*
X101965199Y-91000000D01*
X106910001Y-95944803D01*
X106910000Y-108727659D01*
X106779465Y-108814880D01*
X106584880Y-109009465D01*
X106431995Y-109238273D01*
X106326686Y-109492510D01*
X106273000Y-109762408D01*
X106273000Y-110037592D01*
X106326686Y-110307490D01*
X106431995Y-110561727D01*
X106584880Y-110790535D01*
X106779465Y-110985120D01*
X107008273Y-111138005D01*
X107085515Y-111170000D01*
X107008273Y-111201995D01*
X106779465Y-111354880D01*
X106584880Y-111549465D01*
X106497659Y-111680000D01*
X106404802Y-111680000D01*
X102960000Y-108235199D01*
X102960000Y-97587322D01*
X102963676Y-97549999D01*
X102960000Y-97512676D01*
X102960000Y-97512667D01*
X102949003Y-97401014D01*
X102905546Y-97257753D01*
X102834974Y-97125724D01*
X102740001Y-97009999D01*
X102711003Y-96986201D01*
X100453804Y-94729003D01*
X100430001Y-94699999D01*
X100314276Y-94605026D01*
X100182247Y-94534454D01*
X100038986Y-94490997D01*
X99927333Y-94480000D01*
X99927322Y-94480000D01*
X99890000Y-94476324D01*
X99852678Y-94480000D01*
X94104206Y-94480000D01*
X94097157Y-94466812D01*
X93924081Y-94255919D01*
X93713188Y-94082843D01*
X93472581Y-93954236D01*
X93211507Y-93875040D01*
X93008037Y-93855000D01*
X91371963Y-93855000D01*
X91168493Y-93875040D01*
X90907419Y-93954236D01*
X90666812Y-94082843D01*
X90455919Y-94255919D01*
X90282843Y-94466812D01*
X90154236Y-94707419D01*
X90075040Y-94968493D01*
X90048299Y-95240000D01*
X90075040Y-95511507D01*
X90154236Y-95772581D01*
X90282843Y-96013188D01*
X90455919Y-96224081D01*
X90666812Y-96397157D01*
X90907419Y-96525764D01*
X91168493Y-96604960D01*
X91371963Y-96625000D01*
X93008037Y-96625000D01*
X93211507Y-96604960D01*
X93472581Y-96525764D01*
X93713188Y-96397157D01*
X93924081Y-96224081D01*
X94097157Y-96013188D01*
X94104206Y-96000000D01*
X99575199Y-96000000D01*
X101440001Y-97864803D01*
X101440000Y-108512678D01*
X101436324Y-108550000D01*
X101440000Y-108587322D01*
X101440000Y-108587332D01*
X101450997Y-108698985D01*
X101486153Y-108814880D01*
X101494454Y-108842246D01*
X101565026Y-108974276D01*
X101593905Y-109009465D01*
X101659999Y-109090001D01*
X101689003Y-109113804D01*
X105526201Y-112951003D01*
X105549999Y-112980001D01*
X105665724Y-113074974D01*
X105797753Y-113145546D01*
X105941014Y-113189003D01*
X106052667Y-113200000D01*
X106052675Y-113200000D01*
X106090000Y-113203676D01*
X106127325Y-113200000D01*
X106497659Y-113200000D01*
X106584880Y-113330535D01*
X106779465Y-113525120D01*
X107008273Y-113678005D01*
X107085515Y-113710000D01*
X107008273Y-113741995D01*
X106779465Y-113894880D01*
X106584880Y-114089465D01*
X106497659Y-114220000D01*
X106154802Y-114220000D01*
X99260000Y-107325199D01*
X99260000Y-101707322D01*
X99263676Y-101669999D01*
X99260000Y-101632676D01*
X99260000Y-101632667D01*
X99249003Y-101521014D01*
X99205546Y-101377753D01*
X99134974Y-101245724D01*
X99117212Y-101224081D01*
X99063799Y-101158996D01*
X99063795Y-101158992D01*
X99040001Y-101129999D01*
X99011008Y-101106205D01*
X97633803Y-99729002D01*
X97610001Y-99699999D01*
X97494276Y-99605026D01*
X97362247Y-99534454D01*
X97218986Y-99490997D01*
X97107333Y-99480000D01*
X97107322Y-99480000D01*
X97070000Y-99476324D01*
X97032678Y-99480000D01*
X94104206Y-99480000D01*
X94097157Y-99466812D01*
X93924081Y-99255919D01*
X93713188Y-99082843D01*
X93472581Y-98954236D01*
X93211507Y-98875040D01*
X93008037Y-98855000D01*
X91371963Y-98855000D01*
X91168493Y-98875040D01*
X90907419Y-98954236D01*
X90666812Y-99082843D01*
X90455919Y-99255919D01*
X90282843Y-99466812D01*
X90154236Y-99707419D01*
X90075040Y-99968493D01*
X90048299Y-100240000D01*
X90075040Y-100511507D01*
X90154236Y-100772581D01*
X90282843Y-101013188D01*
X90455919Y-101224081D01*
X90666812Y-101397157D01*
X90907419Y-101525764D01*
X91168493Y-101604960D01*
X91371963Y-101625000D01*
X93008037Y-101625000D01*
X93211507Y-101604960D01*
X93472581Y-101525764D01*
X93713188Y-101397157D01*
X93924081Y-101224081D01*
X94097157Y-101013188D01*
X94104206Y-101000000D01*
X96755199Y-101000000D01*
X97740001Y-101984804D01*
X97740000Y-107602677D01*
X97736324Y-107640000D01*
X97740000Y-107677322D01*
X97740000Y-107677332D01*
X97750997Y-107788985D01*
X97794454Y-107932246D01*
X97865026Y-108064276D01*
X97904871Y-108112826D01*
X97959999Y-108180001D01*
X97989003Y-108203804D01*
X105276201Y-115491003D01*
X105299999Y-115520001D01*
X105328997Y-115543799D01*
X105415724Y-115614974D01*
X105547753Y-115685546D01*
X105691014Y-115729003D01*
X105840000Y-115743677D01*
X105877333Y-115740000D01*
X106497659Y-115740000D01*
X106584880Y-115870535D01*
X106779465Y-116065120D01*
X107008273Y-116218005D01*
X107085515Y-116250000D01*
X107008273Y-116281995D01*
X106779465Y-116434880D01*
X106584880Y-116629465D01*
X106497659Y-116760000D01*
X106134802Y-116760000D01*
X97510000Y-108135199D01*
X97510000Y-105927323D01*
X97513676Y-105890000D01*
X97510000Y-105852677D01*
X97510000Y-105852667D01*
X97499003Y-105741014D01*
X97455546Y-105597753D01*
X97384974Y-105465724D01*
X97290001Y-105349999D01*
X97261004Y-105326202D01*
X96663803Y-104729002D01*
X96640001Y-104699999D01*
X96524276Y-104605026D01*
X96392247Y-104534454D01*
X96248986Y-104490997D01*
X96137333Y-104480000D01*
X96137322Y-104480000D01*
X96100000Y-104476324D01*
X96062678Y-104480000D01*
X94104206Y-104480000D01*
X94097157Y-104466812D01*
X93924081Y-104255919D01*
X93713188Y-104082843D01*
X93472581Y-103954236D01*
X93211507Y-103875040D01*
X93008037Y-103855000D01*
X91371963Y-103855000D01*
X91168493Y-103875040D01*
X90907419Y-103954236D01*
X90666812Y-104082843D01*
X90455919Y-104255919D01*
X90282843Y-104466812D01*
X90154236Y-104707419D01*
X90075040Y-104968493D01*
X90048299Y-105240000D01*
X90075040Y-105511507D01*
X90154236Y-105772581D01*
X90282843Y-106013188D01*
X90455919Y-106224081D01*
X90666812Y-106397157D01*
X90907419Y-106525764D01*
X91168493Y-106604960D01*
X91371963Y-106625000D01*
X93008037Y-106625000D01*
X93211507Y-106604960D01*
X93472581Y-106525764D01*
X93713188Y-106397157D01*
X93924081Y-106224081D01*
X94097157Y-106013188D01*
X94104206Y-106000000D01*
X95785199Y-106000000D01*
X95990000Y-106204802D01*
X95990001Y-108412668D01*
X95986324Y-108450000D01*
X96000998Y-108598985D01*
X96044454Y-108742246D01*
X96115026Y-108874276D01*
X96180648Y-108954236D01*
X96210000Y-108990001D01*
X96238998Y-109013799D01*
X105256201Y-118031003D01*
X105279999Y-118060001D01*
X105308997Y-118083799D01*
X105395723Y-118154974D01*
X105527753Y-118225546D01*
X105671014Y-118269003D01*
X105782667Y-118280000D01*
X105782677Y-118280000D01*
X105819999Y-118283676D01*
X105857322Y-118280000D01*
X106497659Y-118280000D01*
X106584880Y-118410535D01*
X106779465Y-118605120D01*
X107008273Y-118758005D01*
X107085515Y-118790000D01*
X107008273Y-118821995D01*
X106779465Y-118974880D01*
X106584880Y-119169465D01*
X106497659Y-119300000D01*
X105684802Y-119300000D01*
X96113804Y-109729003D01*
X96090001Y-109699999D01*
X95974276Y-109605026D01*
X95842247Y-109534454D01*
X95698986Y-109490997D01*
X95587333Y-109480000D01*
X95587322Y-109480000D01*
X95550000Y-109476324D01*
X95512678Y-109480000D01*
X94104206Y-109480000D01*
X94097157Y-109466812D01*
X93924081Y-109255919D01*
X93713188Y-109082843D01*
X93472581Y-108954236D01*
X93211507Y-108875040D01*
X93008037Y-108855000D01*
X91371963Y-108855000D01*
X91168493Y-108875040D01*
X90907419Y-108954236D01*
X90666812Y-109082843D01*
X90455919Y-109255919D01*
X90282843Y-109466812D01*
X90154236Y-109707419D01*
X90075040Y-109968493D01*
X90048299Y-110240000D01*
X90075040Y-110511507D01*
X90154236Y-110772581D01*
X90282843Y-111013188D01*
X90455919Y-111224081D01*
X90666812Y-111397157D01*
X90907419Y-111525764D01*
X91168493Y-111604960D01*
X91371963Y-111625000D01*
X93008037Y-111625000D01*
X93211507Y-111604960D01*
X93472581Y-111525764D01*
X93713188Y-111397157D01*
X93924081Y-111224081D01*
X94097157Y-111013188D01*
X94104206Y-111000000D01*
X95235199Y-111000000D01*
X104806201Y-120571003D01*
X104829999Y-120600001D01*
X104945724Y-120694974D01*
X105077753Y-120765546D01*
X105221014Y-120809003D01*
X105332667Y-120820000D01*
X105332676Y-120820000D01*
X105369999Y-120823676D01*
X105407322Y-120820000D01*
X106497659Y-120820000D01*
X106584880Y-120950535D01*
X106779465Y-121145120D01*
X107008273Y-121298005D01*
X107085515Y-121330000D01*
X107008273Y-121361995D01*
X106779465Y-121514880D01*
X106584880Y-121709465D01*
X106497659Y-121840000D01*
X103494802Y-121840000D01*
X96383804Y-114729003D01*
X96360001Y-114699999D01*
X96244276Y-114605026D01*
X96112247Y-114534454D01*
X95968986Y-114490997D01*
X95857333Y-114480000D01*
X95857322Y-114480000D01*
X95820000Y-114476324D01*
X95782678Y-114480000D01*
X94104206Y-114480000D01*
X94097157Y-114466812D01*
X93924081Y-114255919D01*
X93713188Y-114082843D01*
X93472581Y-113954236D01*
X93211507Y-113875040D01*
X93008037Y-113855000D01*
X91371963Y-113855000D01*
X91168493Y-113875040D01*
X90907419Y-113954236D01*
X90666812Y-114082843D01*
X90455919Y-114255919D01*
X90282843Y-114466812D01*
X90154236Y-114707419D01*
X90075040Y-114968493D01*
X90048299Y-115240000D01*
X90075040Y-115511507D01*
X90154236Y-115772581D01*
X90282843Y-116013188D01*
X90455919Y-116224081D01*
X90666812Y-116397157D01*
X90907419Y-116525764D01*
X91168493Y-116604960D01*
X91371963Y-116625000D01*
X93008037Y-116625000D01*
X93211507Y-116604960D01*
X93472581Y-116525764D01*
X93713188Y-116397157D01*
X93924081Y-116224081D01*
X94097157Y-116013188D01*
X94104206Y-116000000D01*
X95505199Y-116000000D01*
X102616201Y-123111003D01*
X102639999Y-123140001D01*
X102755724Y-123234974D01*
X102887753Y-123305546D01*
X103031014Y-123349003D01*
X103142667Y-123360000D01*
X103142677Y-123360000D01*
X103180000Y-123363676D01*
X103217323Y-123360000D01*
X106497659Y-123360000D01*
X106584880Y-123490535D01*
X106779465Y-123685120D01*
X107008273Y-123838005D01*
X107085515Y-123870000D01*
X107008273Y-123901995D01*
X106779465Y-124054880D01*
X106584880Y-124249465D01*
X106497659Y-124380000D01*
X102834803Y-124380000D01*
X98183804Y-119729003D01*
X98160001Y-119699999D01*
X98044276Y-119605026D01*
X97912247Y-119534454D01*
X97768986Y-119490997D01*
X97657333Y-119480000D01*
X97657322Y-119480000D01*
X97620000Y-119476324D01*
X97582678Y-119480000D01*
X94104206Y-119480000D01*
X94097157Y-119466812D01*
X93924081Y-119255919D01*
X93713188Y-119082843D01*
X93472581Y-118954236D01*
X93211507Y-118875040D01*
X93008037Y-118855000D01*
X91371963Y-118855000D01*
X91168493Y-118875040D01*
X90907419Y-118954236D01*
X90666812Y-119082843D01*
X90455919Y-119255919D01*
X90282843Y-119466812D01*
X90154236Y-119707419D01*
X90075040Y-119968493D01*
X90048299Y-120240000D01*
X90075040Y-120511507D01*
X90154236Y-120772581D01*
X90282843Y-121013188D01*
X90455919Y-121224081D01*
X90666812Y-121397157D01*
X90907419Y-121525764D01*
X91168493Y-121604960D01*
X91371963Y-121625000D01*
X93008037Y-121625000D01*
X93211507Y-121604960D01*
X93472581Y-121525764D01*
X93713188Y-121397157D01*
X93924081Y-121224081D01*
X94097157Y-121013188D01*
X94104206Y-121000000D01*
X97305199Y-121000000D01*
X101956205Y-125651008D01*
X101979999Y-125680001D01*
X102008992Y-125703795D01*
X102008996Y-125703799D01*
X102064078Y-125749003D01*
X102095724Y-125774974D01*
X102227753Y-125845546D01*
X102371014Y-125889003D01*
X102482667Y-125900000D01*
X102482676Y-125900000D01*
X102519999Y-125903676D01*
X102557322Y-125900000D01*
X106497659Y-125900000D01*
X106584880Y-126030535D01*
X106779465Y-126225120D01*
X107008273Y-126378005D01*
X107085515Y-126410000D01*
X107008273Y-126441995D01*
X106779465Y-126594880D01*
X106584880Y-126789465D01*
X106497659Y-126920000D01*
X102084802Y-126920000D01*
X99893804Y-124729003D01*
X99870001Y-124699999D01*
X99754276Y-124605026D01*
X99622247Y-124534454D01*
X99478986Y-124490997D01*
X99367333Y-124480000D01*
X99367322Y-124480000D01*
X99330000Y-124476324D01*
X99292678Y-124480000D01*
X94104206Y-124480000D01*
X94097157Y-124466812D01*
X93924081Y-124255919D01*
X93713188Y-124082843D01*
X93472581Y-123954236D01*
X93211507Y-123875040D01*
X93008037Y-123855000D01*
X91371963Y-123855000D01*
X91168493Y-123875040D01*
X90907419Y-123954236D01*
X90666812Y-124082843D01*
X90455919Y-124255919D01*
X90282843Y-124466812D01*
X90154236Y-124707419D01*
X90075040Y-124968493D01*
X90048299Y-125240000D01*
X90075040Y-125511507D01*
X90154236Y-125772581D01*
X90282843Y-126013188D01*
X90455919Y-126224081D01*
X90666812Y-126397157D01*
X90907419Y-126525764D01*
X91168493Y-126604960D01*
X91371963Y-126625000D01*
X93008037Y-126625000D01*
X93211507Y-126604960D01*
X93472581Y-126525764D01*
X93713188Y-126397157D01*
X93924081Y-126224081D01*
X94097157Y-126013188D01*
X94104206Y-126000000D01*
X99015199Y-126000000D01*
X101206201Y-128191003D01*
X101229999Y-128220001D01*
X101258997Y-128243799D01*
X101345723Y-128314974D01*
X101477753Y-128385546D01*
X101621014Y-128429003D01*
X101732667Y-128440000D01*
X101732676Y-128440000D01*
X101769999Y-128443676D01*
X101807322Y-128440000D01*
X106497659Y-128440000D01*
X106584880Y-128570535D01*
X106779465Y-128765120D01*
X107008273Y-128918005D01*
X107085515Y-128950000D01*
X107008273Y-128981995D01*
X106779465Y-129134880D01*
X106584880Y-129329465D01*
X106497659Y-129460000D01*
X94091567Y-129460000D01*
X93924081Y-129255919D01*
X93713188Y-129082843D01*
X93472581Y-128954236D01*
X93211507Y-128875040D01*
X93008037Y-128855000D01*
X91371963Y-128855000D01*
X91168493Y-128875040D01*
X90907419Y-128954236D01*
X90666812Y-129082843D01*
X90455919Y-129255919D01*
X90282843Y-129466812D01*
X90154236Y-129707419D01*
X90075040Y-129968493D01*
X90048299Y-130240000D01*
X90075040Y-130511507D01*
X90154236Y-130772581D01*
X90282843Y-131013188D01*
X90455919Y-131224081D01*
X90666812Y-131397157D01*
X90907419Y-131525764D01*
X91168493Y-131604960D01*
X91371963Y-131625000D01*
X93008037Y-131625000D01*
X93211507Y-131604960D01*
X93472581Y-131525764D01*
X93713188Y-131397157D01*
X93924081Y-131224081D01*
X94097157Y-131013188D01*
X94114896Y-130980000D01*
X106497659Y-130980000D01*
X106584880Y-131110535D01*
X106779465Y-131305120D01*
X107008273Y-131458005D01*
X107079943Y-131487692D01*
X107066977Y-131492364D01*
X106951020Y-131554344D01*
X106884040Y-131794435D01*
X107670000Y-132580395D01*
X108455960Y-131794435D01*
X108388980Y-131554344D01*
X108253240Y-131490515D01*
X108331727Y-131458005D01*
X108560535Y-131305120D01*
X108755120Y-131110535D01*
X108908005Y-130881727D01*
X109013314Y-130627490D01*
X109067000Y-130357592D01*
X109067000Y-130082408D01*
X109013314Y-129812510D01*
X108908005Y-129558273D01*
X108755120Y-129329465D01*
X108560535Y-129134880D01*
X108331727Y-128981995D01*
X108254485Y-128950000D01*
X108331727Y-128918005D01*
X108560535Y-128765120D01*
X108755120Y-128570535D01*
X108908005Y-128341727D01*
X109013314Y-128087490D01*
X109067000Y-127817592D01*
X109067000Y-127542408D01*
X109013314Y-127272510D01*
X108908005Y-127018273D01*
X108755120Y-126789465D01*
X108560535Y-126594880D01*
X108331727Y-126441995D01*
X108254485Y-126410000D01*
X108331727Y-126378005D01*
X108560535Y-126225120D01*
X108755120Y-126030535D01*
X108908005Y-125801727D01*
X109013314Y-125547490D01*
X109067000Y-125277592D01*
X109067000Y-125002408D01*
X109013314Y-124732510D01*
X108908005Y-124478273D01*
X108755120Y-124249465D01*
X108560535Y-124054880D01*
X108331727Y-123901995D01*
X108254485Y-123870000D01*
X108331727Y-123838005D01*
X108560535Y-123685120D01*
X108755120Y-123490535D01*
X108908005Y-123261727D01*
X109013314Y-123007490D01*
X109067000Y-122737592D01*
X109067000Y-122462408D01*
X109013314Y-122192510D01*
X108908005Y-121938273D01*
X108755120Y-121709465D01*
X108560535Y-121514880D01*
X108331727Y-121361995D01*
X108254485Y-121330000D01*
X108331727Y-121298005D01*
X108560535Y-121145120D01*
X108755120Y-120950535D01*
X108908005Y-120721727D01*
X109013314Y-120467490D01*
X109067000Y-120197592D01*
X109067000Y-119922408D01*
X109013314Y-119652510D01*
X108908005Y-119398273D01*
X108755120Y-119169465D01*
X108560535Y-118974880D01*
X108331727Y-118821995D01*
X108254485Y-118790000D01*
X108331727Y-118758005D01*
X108560535Y-118605120D01*
X108755120Y-118410535D01*
X108908005Y-118181727D01*
X109013314Y-117927490D01*
X109067000Y-117657592D01*
X109067000Y-117382408D01*
X109013314Y-117112510D01*
X108908005Y-116858273D01*
X108755120Y-116629465D01*
X108560535Y-116434880D01*
X108331727Y-116281995D01*
X108254485Y-116250000D01*
X108331727Y-116218005D01*
X108560535Y-116065120D01*
X108755120Y-115870535D01*
X108908005Y-115641727D01*
X109013314Y-115387490D01*
X109067000Y-115117592D01*
X109067000Y-114842408D01*
X109013314Y-114572510D01*
X108908005Y-114318273D01*
X108755120Y-114089465D01*
X108560535Y-113894880D01*
X108331727Y-113741995D01*
X108254485Y-113710000D01*
X108331727Y-113678005D01*
X108560535Y-113525120D01*
X108755120Y-113330535D01*
X108908005Y-113101727D01*
X109013314Y-112847490D01*
X109067000Y-112577592D01*
X109067000Y-112302408D01*
X109013314Y-112032510D01*
X108908005Y-111778273D01*
X108755120Y-111549465D01*
X108560535Y-111354880D01*
X108331727Y-111201995D01*
X108254485Y-111170000D01*
X108331727Y-111138005D01*
X108560535Y-110985120D01*
X108755120Y-110790535D01*
X108908005Y-110561727D01*
X109013314Y-110307490D01*
X109067000Y-110037592D01*
X109067000Y-109762408D01*
X109013314Y-109492510D01*
X108908005Y-109238273D01*
X108755120Y-109009465D01*
X108560535Y-108814880D01*
X108430000Y-108727659D01*
X108430000Y-95667322D01*
X108433676Y-95629999D01*
X108430000Y-95592676D01*
X108430000Y-95592667D01*
X108419003Y-95481014D01*
X108375546Y-95337753D01*
X108351222Y-95292247D01*
X108304974Y-95205723D01*
X108233799Y-95118997D01*
X108210001Y-95089999D01*
X108181003Y-95066201D01*
X102843804Y-89729003D01*
X102820001Y-89699999D01*
X102704276Y-89605026D01*
X102572247Y-89534454D01*
X102428986Y-89490997D01*
X102317333Y-89480000D01*
X102317322Y-89480000D01*
X102280000Y-89476324D01*
X102242678Y-89480000D01*
X94104206Y-89480000D01*
X94097157Y-89466812D01*
X93924081Y-89255919D01*
X93713188Y-89082843D01*
X93472581Y-88954236D01*
X93211507Y-88875040D01*
X93008037Y-88855000D01*
X91371963Y-88855000D01*
X91168493Y-88875040D01*
X90907419Y-88954236D01*
X90666812Y-89082843D01*
X90455919Y-89255919D01*
X90282843Y-89466812D01*
X90154236Y-89707419D01*
X90075040Y-89968493D01*
X90048299Y-90240000D01*
X83660000Y-90240000D01*
X83660000Y-83660000D01*
X160340000Y-83660000D01*
X160340001Y-171340000D01*
G37*
%TD.AperFunction*%
%TD*%
M02*
