%TF.GenerationSoftware,KiCad,Pcbnew,(5.1.8-0-10_14)*%
%TF.CreationDate,2021-01-01T23:10:54+08:00*%
%TF.ProjectId,nodemcu shield,6e6f6465-6d63-4752-9073-6869656c642e,rev?*%
%TF.SameCoordinates,Original*%
%TF.FileFunction,Soldermask,Top*%
%TF.FilePolarity,Negative*%
%FSLAX46Y46*%
G04 Gerber Fmt 4.6, Leading zero omitted, Abs format (unit mm)*
G04 Created by KiCad (PCBNEW (5.1.8-0-10_14)) date 2021-01-01 23:10:54*
%MOMM*%
%LPD*%
G01*
G04 APERTURE LIST*
%ADD10C,1.524000*%
%ADD11O,3.000000X1.500000*%
%ADD12R,3.000000X1.500000*%
G04 APERTURE END LIST*
D10*
%TO.C,U1*%
X135610000Y-109900000D03*
X135610000Y-112440000D03*
X135610000Y-114980000D03*
X135610000Y-117520000D03*
X135610000Y-120060000D03*
X135610000Y-122600000D03*
X135610000Y-125140000D03*
X135610000Y-127680000D03*
X135610000Y-130220000D03*
X135610000Y-132760000D03*
X135610000Y-135300000D03*
X135610000Y-137840000D03*
X135610000Y-140380000D03*
X135610000Y-142920000D03*
X135610000Y-145460000D03*
X107670000Y-145460000D03*
X107670000Y-142920000D03*
X107670000Y-140380000D03*
X107670000Y-137840000D03*
X107670000Y-135300000D03*
X107670000Y-132760000D03*
X107670000Y-130220000D03*
X107670000Y-127680000D03*
X107670000Y-125140000D03*
X107670000Y-122600000D03*
X107670000Y-120060000D03*
X107670000Y-117520000D03*
X107670000Y-114980000D03*
X107670000Y-112440000D03*
X107670000Y-109900000D03*
%TD*%
D11*
%TO.C,J2*%
X152000000Y-165000000D03*
X152000000Y-160000000D03*
X152000000Y-155000000D03*
X152000000Y-150000000D03*
X152000000Y-145000000D03*
X152000000Y-140000000D03*
X152000000Y-135000000D03*
X152000000Y-130000000D03*
X152000000Y-125000000D03*
X152000000Y-120000000D03*
X152000000Y-115000000D03*
X152000000Y-110000000D03*
X152000000Y-105000000D03*
X152000000Y-100000000D03*
X152000000Y-95000000D03*
D12*
X152000000Y-90000000D03*
%TD*%
D11*
%TO.C,J1*%
X92190000Y-90240000D03*
X92190000Y-95240000D03*
X92190000Y-100240000D03*
X92190000Y-105240000D03*
X92190000Y-110240000D03*
X92190000Y-115240000D03*
X92190000Y-120240000D03*
X92190000Y-125240000D03*
X92190000Y-130240000D03*
X92190000Y-135240000D03*
X92190000Y-140240000D03*
X92190000Y-145240000D03*
X92190000Y-150240000D03*
X92190000Y-155240000D03*
X92190000Y-160240000D03*
D12*
X92190000Y-165240000D03*
%TD*%
M02*
