M48
; DRILL file {KiCad (5.1.8-0-10_14)} date Friday, January 01, 2021 at 11:10:57 PM
; FORMAT={-:-/ absolute / inch / decimal}
; #@! TF.CreationDate,2021-01-01T23:10:57+08:00
; #@! TF.GenerationSoftware,Kicad,Pcbnew,(5.1.8-0-10_14)
; #@! TF.FileFunction,Plated,1,2,PTH
FMAT,2
INCH
T1C0.0300
T2C0.0453
T3C0.0787
%
G90
G05
T1
X4.239Y-4.3268
X4.239Y-4.4268
X4.239Y-4.5268
X4.239Y-4.6268
X4.239Y-4.7268
X4.239Y-4.8268
X4.239Y-4.9268
X4.239Y-5.0268
X4.239Y-5.1268
X4.239Y-5.2268
X4.239Y-5.3268
X4.239Y-5.4268
X4.239Y-5.5268
X4.239Y-5.6268
X4.239Y-5.7268
X5.339Y-4.3268
X5.339Y-4.4268
X5.339Y-4.5268
X5.339Y-4.6268
X5.339Y-4.7268
X5.339Y-4.8268
X5.339Y-4.9268
X5.339Y-5.0268
X5.339Y-5.1268
X5.339Y-5.2268
X5.339Y-5.3268
X5.339Y-5.4268
X5.339Y-5.5268
X5.339Y-5.6268
X5.339Y-5.7268
T2
X3.6295Y-3.5528
X3.6295Y-3.7496
X3.6295Y-3.9465
X3.6295Y-4.1433
X3.6295Y-4.3402
X3.6295Y-4.537
X3.6295Y-4.7339
X3.6295Y-4.9307
X3.6295Y-5.1276
X3.6295Y-5.3244
X3.6295Y-5.5213
X3.6295Y-5.7181
X3.6295Y-5.915
X3.6295Y-6.1118
X3.6295Y-6.3087
X3.6295Y-6.5055
X5.9843Y-3.5433
X5.9843Y-3.7402
X5.9843Y-3.937
X5.9843Y-4.1339
X5.9843Y-4.3307
X5.9843Y-4.5276
X5.9843Y-4.7244
X5.9843Y-4.9213
X5.9843Y-5.1181
X5.9843Y-5.315
X5.9843Y-5.5118
X5.9843Y-5.7087
X5.9843Y-5.9055
X5.9843Y-6.1024
X5.9843Y-6.2992
X5.9843Y-6.4961
T3
X3.3504Y-3.3504
X3.3504Y-6.685
X6.2598Y-3.3465
X6.2598Y-6.6969
T0
M30
